<svg width="1920" height="2086" fill="none" xmlns="http://www.w3.org/2000/svg">
<path fill-rule="evenodd" clip-rule="evenodd" d="M-242.765 1316.6C-303.941 1158.29 -361.351 985.437 -222.417 811.162C-82.4344 635.571 193.044 477.379 490.072 397.342C761.254 324.269 989.696 428.721 1262.17 411.127C1545.33 392.843 1876.38 227.49 2101.68 293.28C2326.46 358.919 2342.06 554.009 2321.75 720.536C2303.8 867.624 2096.59 1003.73 1996.86 1152.48C1881.22 1324.95 1948.11 1537.15 1692.1 1659.65C1438.5 1781.01 1139.88 1693.49 858.406 1697.26C599.72 1700.73 313.76 1749.98 113.655 1680.81C-95.8625 1608.38 -185.809 1463.98 -242.765 1316.6Z" fill="#C8EEFB"/>
</svg>
