<?xml version="1.0" encoding="UTF-8" standalone="no"?>
<!DOCTYPE svg PUBLIC "-//W3C//DTD SVG 1.1//EN" "http://www.w3.org/Graphics/SVG/1.1/DTD/svg11.dtd">
<svg version="1.1" xmlns="http://www.w3.org/2000/svg" xmlns:xlink="http://www.w3.org/1999/xlink" preserveAspectRatio="xMidYMid meet" viewBox="-1.000000000000016 -1 503.99999999999983 278.3" width="500" height="274.3"><defs><path d="M16.28 101.13C42.83 67.83 95.07 37.83 151.4 22.65C202.83 8.79 246.15 28.6 297.82 25.27C351.52 21.8 414.31 -9.56 457.03 2.92C499.66 15.37 502.62 52.36 498.77 83.95C495.36 111.84 456.07 137.65 437.15 165.86C415.22 198.57 427.91 238.81 379.36 262.04C331.26 285.06 274.63 268.46 221.25 269.18C172.19 269.83 117.96 279.17 80.01 266.06C40.28 252.32 23.22 224.94 12.42 196.99C0.82 166.96 -10.07 134.18 16.28 101.13Z" id="bIrH5xsFI"></path></defs><g><g><use xlink:href="#bIrH5xsFI" opacity="1" fill="#c8eefb" fill-opacity="1"></use><g><use xlink:href="#bIrH5xsFI" opacity="1" fill-opacity="0" stroke="#000000" stroke-width="1" stroke-opacity="0"></use></g></g></g></svg>