<svg width="182" height="85" viewBox="0 0 182 85" fill="none" xmlns="http://www.w3.org/2000/svg">
<path d="M179.316 61.9412C177.302 62.1863 176.159 61.3437 175.891 59.4018C174.538 46.5506 173.87 38.9744 173.899 36.6752C165.86 53.829 153.141 66.5373 135.74 74.7878C118.167 82.7976 99.6347 85.7941 80.1454 83.7871C65.9993 82.3704 53.1182 78.4627 41.5016 72.0662C29.8846 65.6722 20.2574 56.452 12.622 44.4086C4.98263 32.3596 1.08763 18.5577 0.93258 2.99988C0.875289 1.10271 1.83924 0.122983 3.81431 0.0856787C5.78978 0.0337652 6.8062 0.96251 6.86349 2.85968C7.00614 17.3754 10.602 30.2178 17.6487 41.4232C24.6925 52.6182 33.6309 61.182 44.4658 67.1174C55.294 73.049 67.3437 76.7432 80.6108 78.2089C99.6803 80.1364 117.521 77.0555 134.123 68.972C150.721 60.8829 162.601 48.28 169.757 31.1695C160.044 38.1491 150.509 43.1588 141.153 46.218C139.261 46.9071 137.957 46.3448 137.231 44.529C136.496 42.7067 137.076 41.4561 138.969 40.7623C151.81 36.6841 163.942 29.6411 175.356 19.6265C176.732 18.2061 178.034 18.2446 179.265 19.74C179.862 20.0583 180.2 20.5432 180.288 21.196C180.841 21.7165 181.016 22.4812 180.813 23.4923C180.367 25.715 180.075 27.9693 179.94 30.2608C179.814 32.5392 179.811 35.0047 179.933 37.6555C180.06 40.2974 180.176 42.4234 180.294 44.0165C180.413 45.6096 180.661 48.1814 181.047 51.714C181.428 55.2504 181.728 57.5629 181.946 58.6564C182.212 60.5954 181.333 61.6964 179.316 61.9412Z" fill="#0070DA"/>
</svg>
