<svg width="181" height="88" viewBox="0 0 181 88" fill="none" xmlns="http://www.w3.org/2000/svg">
<path d="M177.381 20.7643C175.36 20.5767 174.242 21.4517 174.034 23.4003C173.07 36.2846 172.633 43.8765 172.731 46.174C164.176 29.2573 151.077 16.9178 133.434 9.16792C115.625 1.66363 97.01 -0.802179 77.59 1.76058C63.493 3.58074 50.736 7.85473 39.3184 14.5802C27.9003 21.3033 18.5568 30.7944 11.2899 43.0507C4.01924 55.3127 0.544449 69.2198 0.861225 84.7753C0.861487 86.6732 1.85473 87.625 3.83008 87.6059C5.80626 87.6013 6.79408 86.644 6.79381 84.746C6.49625 70.2325 9.70107 57.293 16.405 45.8912C23.1062 34.4999 31.7811 25.6845 42.4314 19.4422C53.0749 13.2039 65.0075 9.16711 78.2244 7.32309C97.2272 4.85174 115.153 7.42163 131.993 15.0274C148.83 22.6389 161.087 34.8969 168.758 51.7955C158.838 45.0964 149.156 40.3613 139.71 37.5707C137.798 36.9359 136.512 37.5353 135.841 39.371C135.162 41.2135 135.779 42.4469 137.693 43.0864C150.652 46.796 162.992 53.4894 174.705 63.1736C176.123 64.5541 177.424 64.4784 178.609 62.9485C179.196 62.6133 179.519 62.119 179.587 61.4639C180.124 60.9278 180.276 60.1585 180.043 59.1536C179.529 56.9446 179.168 54.6997 178.965 52.4129C178.77 50.1392 178.691 47.6749 178.734 45.0217C178.78 42.3773 178.832 40.249 178.902 38.6532C178.972 37.0574 179.142 34.4796 179.421 30.9375C179.694 27.3918 179.923 25.0717 180.109 23.9725C180.316 22.0268 179.404 20.9513 177.381 20.7643Z" fill="#E34E1A"/>
</svg>
