<svg width="1920" height="1222" viewBox="0 0 1920 1222" fill="none" xmlns="http://www.w3.org/2000/svg">
<path fill-rule="evenodd" clip-rule="evenodd" d="M-280.652 1146.31C-331.989 1046.36 -379.195 936.215 -241.298 804.145C-102.36 671.076 163.584 535.239 446.718 449.673C705.214 371.553 916.343 417.415 1173.85 376.475C1441.44 333.931 1760.04 187.342 1969.75 207.532C2178.98 227.676 2185.9 357.241 2160.11 471.431C2137.32 572.29 1936.6 685.977 1836.66 796.694C1720.8 925.063 1775.37 1060.65 1529.19 1170.41C1285.34 1279.13 1007.4 1252.15 741.967 1284.76C498.026 1314.72 226.552 1378.4 40.7221 1353.24C-153.85 1326.9 -232.857 1239.37 -280.652 1146.31Z" fill="#FF7C2E"/>
</svg>
