<svg width="1920" height="876" viewBox="0 0 1920 876" fill="none" xmlns="http://www.w3.org/2000/svg">
<path fill-rule="evenodd" clip-rule="evenodd" d="M-54.2622 405.941C-61.8762 310.341 -62.8216 208.094 90.6692 149.855C245.32 91.1754 501.856 72.3467 755.362 98.7443C986.809 122.845 1139.42 228.78 1357.73 281.794C1584.59 336.885 1886.56 327.025 2046.57 412.301C2206.21 497.381 2168.68 601.572 2110.25 682.844C2058.64 754.63 1861.31 777.62 1745.09 831.627C1610.34 894.244 1608.68 1018.94 1376.53 1023.8C1146.56 1028.61 934.562 915.42 712.719 853.226C508.839 796.068 271.872 756.315 132.496 675.034C-13.4358 589.93 -47.1736 494.945 -54.2622 405.941Z" fill="#0070DA"/>
</svg>
