<?xml version="1.0" encoding="UTF-8"?> <svg xmlns="http://www.w3.org/2000/svg" width="527" height="564" viewBox="0 0 527 564" fill="none"> <path d="M216.36 82.6358C215.402 82.387 214.311 82.935 214.03 83.9015C209.715 99.2763 205.4 114.651 201.074 130.032C200.16 133.284 206.026 138.993 209.664 139.902C209.754 139.934 209.863 140.026 209.964 140.052C227.39 144.589 244.827 149.12 262.253 153.656C256.984 172.39 251.732 191.128 246.464 209.862C245.232 214.242 251.876 218.978 255.354 219.882C270.68 223.873 286.006 227.864 301.343 231.849C302.301 232.098 303.392 231.55 303.673 230.583C306.756 219.589 314.029 172.099 320.575 168.277C327.045 164.498 371.401 182.052 382.36 184.908C383.317 185.157 384.409 184.609 384.69 183.642C389.005 168.268 393.32 152.893 397.646 137.512C398.878 133.131 392.233 128.395 388.756 127.492C371.33 122.955 353.893 118.424 336.466 113.887C341.735 95.1539 346.987 76.4158 352.256 57.6822C353.488 53.302 346.843 48.5657 343.366 47.6622C328.04 43.671 312.713 39.6798 297.376 35.6949C296.419 35.4461 295.327 35.9941 295.046 36.9606C291.963 47.9553 284.691 95.4454 278.145 99.2674C271.674 103.046 227.313 85.4815 216.36 82.6358ZM286.128 110.363C287.086 110.611 288.177 110.063 288.458 109.097C292.494 94.716 295.161 60.4283 305.063 49.994C306.022 48.9868 306.366 48.4346 306.509 48.0558C306.788 47.9928 306.964 47.9753 307.346 47.8666C310.424 46.9851 318.473 50.7666 321.239 51.4762C327.169 53.0169 333.099 54.5577 339.018 56.1046C333.749 74.8383 328.497 93.5763 323.228 112.31C321.996 116.69 328.641 121.426 332.118 122.33C349.544 126.867 366.981 131.397 384.408 135.934C382.384 143.128 380.367 150.332 378.344 157.525C377.794 159.48 376.122 169.783 374.426 171.458C374.114 171.765 373.994 171.933 373.789 172.151C373.373 172.124 372.739 172.167 371.504 172.488C364.493 174.309 345.41 165.699 338.287 163.849C329.72 161.623 321.147 159.386 312.579 157.16C311.622 156.911 310.53 157.459 310.249 158.426C306.214 172.807 303.547 207.094 293.645 217.529C292.686 218.536 292.341 219.088 292.199 219.467C291.919 219.53 291.743 219.547 291.361 219.656C288.283 220.538 280.234 216.756 277.469 216.047C271.539 214.506 265.609 212.965 259.69 211.418C264.959 192.684 270.211 173.946 275.479 155.213C276.711 150.833 270.067 146.096 266.589 145.193C249.163 140.656 231.726 136.125 214.3 131.589C216.323 124.395 218.34 117.191 220.364 109.997C220.913 108.043 222.585 97.7393 224.282 96.0651C224.594 95.7574 224.713 95.5896 224.913 95.3612C225.329 95.3879 225.963 95.3448 227.198 95.0239C234.208 93.2027 253.292 101.813 260.414 103.663C268.988 105.9 277.555 108.126 286.128 110.363Z" fill="white"></path> <path d="M493.157 375.604C493.997 375.822 494.554 375.922 494.804 375.002C499.12 359.626 503.435 344.25 507.762 328.867C508.624 325.801 501.263 319.73 498.67 319.047C481.282 314.53 463.898 309.995 446.51 305.477C451.792 286.664 457.085 267.845 462.361 249.022C463.224 245.955 455.863 239.885 453.259 239.208C437.931 235.216 422.603 231.225 407.265 227.24C406.425 227.021 405.867 226.922 405.617 227.842C402.537 238.793 396.203 285.799 388.386 290.484C380.86 295.001 337.1 277.014 326.268 274.182C325.428 273.964 324.87 273.864 324.62 274.785C320.305 290.161 315.989 305.537 311.663 320.919C311.075 323.008 315.111 327.058 318.409 329.207C319.286 329.968 320.116 330.573 320.755 330.739C338.143 335.256 355.526 339.791 372.915 344.309C367.632 363.122 362.339 381.941 357.063 400.765C356.201 403.831 363.562 409.902 366.155 410.584C381.483 414.576 396.81 418.567 412.149 422.553C412.989 422.771 413.547 422.871 413.797 421.95C416.877 410.999 423.211 363.994 431.027 359.308C438.554 354.791 482.314 372.778 493.157 375.604ZM422.504 348.75C421.664 348.532 421.106 348.432 420.856 349.352C416.999 363.067 414.005 398.999 404.25 408.46C399.442 413.122 382.861 407.784 369.622 403.512C374.958 384.542 380.277 365.566 385.612 346.595C386.475 343.529 379.114 337.458 376.51 336.782C359.048 332.236 341.587 327.69 324.125 323.144C327.327 309.133 331.449 287.876 337.985 285.724C344.173 283.689 364.72 292.679 371.205 294.364C379.773 296.59 388.348 298.827 396.916 301.053C397.756 301.271 398.314 301.371 398.563 300.451C402.421 286.736 405.415 250.804 415.17 241.343C419.978 236.681 436.559 242.019 449.798 246.291C444.462 265.261 439.143 284.237 433.808 303.208C432.945 306.274 440.306 312.345 442.899 313.027C460.361 317.573 477.822 322.119 495.284 326.665C492.082 340.676 487.961 361.933 481.424 364.086C475.236 366.121 454.689 357.13 448.204 355.445C439.64 353.202 431.072 350.976 422.504 348.75Z" fill="white"></path> <path d="M347.097 455.782C319.35 406.983 291.604 358.184 263.857 309.386C263.839 309.354 263.804 309.318 263.786 309.286C261.514 305.794 256.926 301.854 254.288 303.383C204.773 332.08 155.268 360.772 105.753 389.469C104.418 390.243 106.125 393.145 106.511 393.824C134.258 442.623 162.004 491.421 189.751 540.22C191.114 542.617 196.014 548.138 199.32 546.222C248.835 517.525 298.34 488.834 347.855 460.137C349.19 459.363 347.483 456.46 347.097 455.782ZM129.585 420.555C126.751 415.57 116.39 396.644 115.937 397.71C115.081 399.729 136.757 387.843 139.331 386.352C156.335 376.497 173.339 366.642 190.353 356.78C213.56 343.331 236.778 329.874 259.985 316.424C271.666 336.968 283.341 357.502 295.022 378.046C304.689 395.047 314.356 412.049 324.023 429.051C326.857 434.035 337.218 452.962 337.671 451.895C338.527 449.876 316.851 461.762 314.277 463.254C297.273 473.109 280.258 482.97 263.254 492.825C240.048 506.275 216.83 519.731 193.623 533.181C181.942 512.637 170.267 492.104 158.586 471.56C148.919 454.558 139.252 437.556 129.585 420.555Z" fill="white"></path> <path d="M114.431 141.302C111.271 152.538 102.733 200.746 98.4862 203.475C94.8678 205.798 48.8651 189.624 37.661 186.713C36.1996 186.333 33.9522 186.409 33.4418 188.256C29.1269 203.63 24.812 219.004 20.4864 234.385C19.7283 237.08 22.3492 240.708 25.2983 242.848C26.1218 243.541 26.9677 244.122 27.8076 244.34C45.7307 248.997 63.6491 253.671 81.5722 258.328C76.3429 276.954 71.1029 295.586 65.8736 314.211C64.6797 318.456 69.4489 323.194 73.1948 324.167C88.5203 328.158 103.846 332.149 119.182 336.134C120.643 336.513 122.891 336.438 123.401 334.591C126.561 323.354 135.099 275.146 139.346 272.417C142.964 270.095 188.967 286.269 200.171 289.18C201.632 289.559 203.88 289.484 204.39 287.637C208.705 272.262 213.02 256.888 217.346 241.508C218.54 237.262 213.77 232.525 210.024 231.552C192.101 226.895 174.183 222.221 156.26 217.564C161.489 198.939 166.729 180.307 171.958 161.681C173.152 157.436 168.383 152.699 164.637 151.725C149.312 147.734 133.986 143.743 118.65 139.759C117.195 139.389 114.947 139.465 114.431 141.302ZM139.06 155.763C145.476 157.431 151.899 159.108 158.316 160.776C153.086 179.401 147.846 198.033 142.617 216.659C141.423 220.904 146.192 225.641 149.938 226.614C167.861 231.271 185.78 235.945 203.703 240.602C201.708 247.694 199.724 254.78 197.73 261.872C196.886 264.871 195.758 273.083 193.812 275.804C193.578 276.123 193.552 276.279 193.409 276.531C193.178 276.552 193.077 276.526 192.796 276.562C176.59 278.877 149.917 265.402 133.875 261.234C132.414 260.855 130.166 260.93 129.656 262.777C124.776 280.129 122.658 306.821 113.052 321.878C112.553 322.661 112.27 323.248 112.132 323.709C108.457 324.019 101.874 320.926 98.7832 320.123C92.3665 318.456 85.9438 316.778 79.5271 315.11C84.7564 296.485 89.9964 277.853 95.2257 259.227C96.4196 254.982 91.6504 250.245 87.9045 249.272C69.9814 244.615 52.063 239.941 34.1399 235.284C36.1345 228.192 38.1184 221.106 40.113 214.014C40.9563 211.015 42.0852 202.803 44.0312 200.082C44.2651 199.763 44.2909 199.607 44.4339 199.355C44.6652 199.334 44.766 199.36 45.0464 199.324C61.2531 197.009 87.9261 210.484 103.968 214.652C105.429 215.032 107.677 214.956 108.187 213.109C113.067 195.757 115.184 169.065 124.791 154.008C125.29 153.225 125.572 152.639 125.711 152.177C129.369 151.862 135.952 154.956 139.06 155.763Z" fill="white"></path> </svg> 