<svg width="1920" height="266" viewBox="0 0 1920 266" fill="none" xmlns="http://www.w3.org/2000/svg">
<path fill-rule="evenodd" clip-rule="evenodd" d="M3009.19 -575.731C3011.7 -390.264 2838.03 -208.011 2599.25 -64.9705C2381.89 65.2371 2072.1 135.367 1759.03 173.171C1485.97 206.146 1233.07 143.565 958.731 133.134C610.819 119.905 176.643 233.267 -61.6715 103.942C-296.36 -23.4152 -151.307 -250.799 -85.6396 -433.61C-31.946 -583.087 141.089 -704.919 277.796 -841.098C434.264 -996.962 469.725 -1215.32 771.427 -1287.37C1072.67 -1359.3 1368.76 -1214.24 1678.42 -1175.55C1988.73 -1136.78 2346.25 -1168.67 2585.81 -1060.69C2845.89 -943.467 3006.67 -762.704 3009.19 -575.731Z" fill="#FF7C2E"/>
</svg>
