<svg width="479" height="430" viewBox="0 0 479 430" fill="none" xmlns="http://www.w3.org/2000/svg">
<path fill-rule="evenodd" clip-rule="evenodd" d="M9.29337 214.738C3.75074 168.996 -0.702414 119.582 28.3211 80.8851C57.5639 41.8959 109.343 15.212 162.385 10.6217C210.811 6.43078 246.494 47.2412 293.433 57.9419C342.212 69.062 403.673 43.6062 440.011 73.9124C476.265 104.149 472.916 157.14 464.329 200.472C456.744 238.745 417.27 263.387 395.706 297.483C370.705 337.015 375.562 397.472 328.196 415.725C281.277 433.806 233.124 393.551 185.078 378.65C140.923 364.956 90.713 361.95 58.7695 332.164C25.3232 300.977 14.4536 257.323 9.29337 214.738Z" fill="#FF7C2E" stroke="#FF7C2E"/>
</svg>
