<svg width="49" height="49" viewBox="0 0 49 49" fill="none" xmlns="http://www.w3.org/2000/svg">
<path d="M47.5371 2.38511C46.6318 1.35639 45.0518 1.28355 44.0782 2.23035L21.7532 23.9428C21.5483 24.1522 21.2408 24.1613 21.0273 23.9702L15.3137 19.0632C14.639 18.4897 13.8447 18.1802 13.0077 18.1802C11.8804 18.1802 10.8128 18.7446 10.0869 19.7096L9.34384 20.7019C8.01152 22.4862 8.17379 25.1081 9.70254 26.674L18.6701 35.8051C19.3704 36.5243 20.2843 36.9157 21.2237 36.9157C22.2998 36.9157 23.3247 36.4059 24.0507 35.5046L47.6055 6.24511C48.4937 5.14355 48.4681 3.45025 47.5371 2.38511Z" fill="white"/>
<path d="M43.0613 16.1183C42.3536 16.1183 41.7802 16.734 41.7802 17.4883C41.7802 17.6226 41.7986 17.7559 41.8353 17.8845C42.4108 19.9083 42.7027 22.0082 42.7027 24.125C42.7027 35.9217 33.6993 45.5189 22.6324 45.5189C11.5656 45.5189 2.56216 35.9217 2.56216 24.125C2.56216 12.3283 11.5656 2.73113 22.6324 2.73113C26.9656 2.73113 31.0908 4.17809 34.5617 6.91541C35.1296 7.36304 35.932 7.23723 36.3536 6.62955C36.7744 6.02324 36.6543 5.16839 36.0854 4.71949C32.1705 1.63185 27.5182 0 22.6324 0C10.1527 0 0 10.8223 0 24.125C0 37.4277 10.1527 48.25 22.6324 48.25C35.1121 48.25 45.2649 37.4277 45.2649 24.125C45.2649 21.7664 44.9433 19.4273 44.3094 17.1701C44.1777 16.566 43.6689 16.1183 43.0613 16.1183Z" fill="#FF7C2E"/>
</svg>
