<svg width="1920" height="1090" viewBox="0 0 1920 1090" fill="none" xmlns="http://www.w3.org/2000/svg">
<path fill-rule="evenodd" clip-rule="evenodd" d="M1060.81 -1093.14C1299.05 -1119.57 1512.28 -957.829 1702.45 -814.629C1888.1 -674.827 2032.63 -498.103 2128.89 -288.856C2235.44 -57.2625 2381.27 206.191 2279.6 439.881C2178.35 672.578 1878.69 736.956 1640.41 833.884C1454.56 909.481 1260.31 910.131 1060.81 935.656C822.334 966.166 571.238 1110.16 359.834 997.719C145.794 883.873 113.086 518.759 23.1736 296.835C-74.0123 56.9587 -293.43 -110.384 -184.272 -345.256C-73.5942 -583.396 289.075 -546.364 516.637 -683.054C716.605 -803.169 827.799 -1067.28 1060.81 -1093.14Z" fill="#66B5FF"/>
<path fill-rule="evenodd" clip-rule="evenodd" d="M1375.51 -968.274C1268.9 -1023.18 1156.54 -1056.8 1038.08 -1043.65C922.514 -1030.83 836.998 -958.929 755.124 -874.702C737.733 -856.811 720.503 -838.357 703.184 -819.808C639.151 -751.228 573.913 -681.357 494.924 -633.911C437.757 -599.572 372.178 -576.186 304.371 -556.692C270.463 -546.944 235.961 -538.16 201.658 -529.471C200.237 -529.111 198.817 -528.751 197.397 -528.392C164.519 -520.065 131.853 -511.792 100.031 -502.793C-32.8829 -465.207 -150.178 -415.172 -205.005 -297.202C-259.111 -180.784 -231.907 -81.114 -178.717 19.7466C-158.605 57.884 -134.833 96.09 -110.364 135.417C-102.435 148.159 -94.4334 161.019 -86.4593 174.033C-53.9109 227.151 -21.8864 282.73 2.49004 342.896C25.0263 398.521 43.9624 463.076 63.0137 530.281C65.2271 538.088 67.442 545.932 69.6644 553.802C86.5846 613.72 103.938 675.173 124.318 733.987C170.468 867.178 231.899 986.073 338.007 1042.51C442.905 1098.31 557.79 1090.57 676.64 1064.85C721.939 1055.05 767.713 1042.65 813.689 1030.21C828.029 1026.32 842.389 1022.44 856.76 1018.62C917.155 1002.58 977.696 987.826 1037.49 980.176C1086.19 973.945 1134.51 969.197 1182.44 964.488C1331.25 949.867 1476.2 935.625 1616.46 878.568C1660.78 860.54 1707.24 843.631 1754.1 826.577C1770.27 820.688 1786.5 814.782 1802.7 808.807C1865.87 785.51 1928.73 761.14 1987.29 732.549C2104.43 675.358 2204.03 601.433 2254.3 485.884C2304.81 369.803 2293.92 246.19 2256.93 122.442C2226.91 22.006 2179.8 -78.2415 2134.61 -174.406C2124.1 -196.778 2113.69 -218.93 2103.62 -240.811C2007.53 -449.669 1863.28 -626.07 1677.94 -765.632L1674.8 -768.001C1580.6 -838.934 1480.97 -913.963 1375.51 -968.274ZM1677.64 -772.116L1680.95 -769.626C1866.93 -629.583 2011.72 -452.537 2108.16 -242.901C2118.19 -221.105 2128.57 -199.013 2139.07 -176.679C2184.27 -80.4962 2231.59 20.1788 2261.72 121.01C2298.87 245.311 2310.06 370.268 2258.89 487.879C2207.92 605.026 2107.06 679.639 1989.49 737.042C1930.69 765.749 1867.63 790.191 1804.43 813.498C1788.18 819.49 1771.93 825.407 1755.73 831.301C1708.9 848.347 1662.57 865.209 1618.35 883.199C1477.34 940.556 1331.39 954.892 1182.41 969.526C1134.6 974.221 1086.49 978.947 1038.12 985.135C978.678 992.74 918.405 1007.42 858.043 1023.45C843.729 1027.25 829.407 1031.13 815.09 1035.01C769.085 1047.46 723.136 1059.9 677.698 1069.74C558.53 1095.53 442.166 1103.58 335.659 1046.93C227.728 989.519 165.785 868.933 119.593 735.625C99.1624 676.662 81.7669 615.059 64.8516 555.157C62.6291 547.287 60.415 539.446 58.2033 531.644C39.1452 464.416 20.2758 400.111 -2.14407 344.774C-26.3605 285.002 -58.2079 229.709 -90.7226 176.646C-98.6522 163.704 -106.625 150.89 -114.537 138.175C-139.031 98.8091 -162.937 60.3889 -183.14 22.079C-236.666 -79.4189 -264.591 -180.856 -209.539 -299.309C-153.689 -419.48 -34.3108 -469.999 98.6701 -507.604C130.559 -516.622 163.284 -524.91 196.142 -533.232L200.43 -534.318C234.741 -543.009 269.168 -551.775 302.99 -561.498C370.644 -580.947 435.735 -604.19 492.349 -638.197C570.675 -685.245 635.28 -754.428 699.251 -822.934C716.64 -841.554 733.981 -860.125 751.539 -878.187C833.505 -962.51 920.09 -1035.59 1037.53 -1048.62C1157.31 -1061.91 1270.69 -1027.88 1377.8 -972.72C1483.64 -918.212 1583.56 -842.966 1677.64 -772.116Z" fill="#66B5FF"/>
</svg>
