<svg width="1920" height="1628" viewBox="0 0 1920 1628" fill="none" xmlns="http://www.w3.org/2000/svg">
<path fill-rule="evenodd" clip-rule="evenodd" d="M-185.319 600.949C-128.25 414.514 124.212 320.341 246.007 154.671C403.555 -59.6318 275.165 167.808 587.5 108.825C870.5 108.825 1043.48 22.3536 1328.5 149.947C1547.15 247.833 1911.7 11.257 2090.03 149.948C2289.02 304.709 2450.8 516.232 2427.07 729.427C2403.65 939.966 2163.3 1083.01 1969.93 1229.24C1798.84 1358.62 1616.47 1486.19 1379.03 1521.99C1149.35 1556.63 928.455 1466.56 698.893 1420.91C427.876 1367.01 96.7117 1398.29 -83.5151 1231.16C-265.563 1062.34 -249.305 809.979 -185.319 600.949Z" fill="#66B5FF"/>
<path fill-rule="evenodd" clip-rule="evenodd" d="M-185.319 643.262C-128.25 456.827 124.212 362.654 246.007 196.984C403.555 -17.3188 275.165 210.121 587.5 151.138C870.5 151.138 1043.48 64.6665 1328.5 192.26C1547.15 290.146 1911.7 53.57 2090.03 192.26C2289.02 347.022 2450.8 558.545 2427.07 771.74C2403.65 982.279 2163.3 1125.32 1969.93 1271.55C1798.84 1400.93 1616.47 1528.5 1379.03 1564.3C1149.35 1598.94 928.455 1508.87 698.893 1463.22C427.876 1409.33 96.7117 1440.6 -83.5151 1273.47C-265.563 1104.65 -249.305 852.292 -185.319 643.262Z" stroke="#66B5FF" stroke-width="5"/>
</svg>
