<svg width="1870" height="1079" viewBox="0 0 1870 1079" fill="none" xmlns="http://www.w3.org/2000/svg">
<path d="M129 498.5C129 258.532 323.532 64 563.5 64H1762C1786.85 64 1807 84.1472 1807 109V498.5C1807 738.468 1612.47 933 1372.5 933H174C149.147 933 129 912.853 129 888V498.5Z" stroke="#C8EEFB" stroke-width="10"/>
<path d="M169 516.5C169 279.294 361.294 87 598.5 87H1727C1749.09 87 1767 104.909 1767 127V480.5C1767 717.706 1574.71 910 1337.5 910H209C186.909 910 169 892.091 169 870V516.5Z" fill="#C8EEFB" fill-opacity="0.5" stroke="#C8EEFB" stroke-width="20"/>
<path d="M281.289 1039.42C216.03 1105.98 213.659 1026.26 146.616 960.533C79.5734 894.804 -26.754 867.956 38.5047 801.393C103.763 734.829 211.015 734.152 278.058 799.881C345.101 865.61 346.547 972.854 281.289 1039.42Z" fill="white"/>
<path d="M1743.95 160.037C1741.86 161.65 1739.77 163.221 1737.67 164.77C1736.02 166.006 1734.34 167.221 1732.64 168.414C1730.32 170.069 1728 171.765 1725.59 173.294C1723.7 174.552 1721.69 175.618 1719.6 176.477C1718.02 177.094 1716.28 177.167 1714.65 176.686C1713.02 176.204 1711.6 175.195 1710.61 173.818C1709.55 172.303 1708.96 170.513 1708.9 168.666C1708.73 167.567 1708.78 166.445 1709.05 165.366C1709.32 164.288 1709.8 163.273 1710.47 162.383C1711.15 161.157 1711.6 159.814 1711.79 158.425C1712.98 154.948 1714.03 151.409 1715.18 147.953C1715.97 145.545 1716.81 143.178 1717.67 140.791C1719.39 136.037 1721.13 131.303 1722.89 126.57C1724.23 122.968 1725.63 119.387 1727.07 115.806C1727.45 114.863 1727.89 113.942 1728.31 112.999C1728.41 112.846 1728.48 112.672 1728.51 112.489C1728.54 112.306 1728.52 112.119 1728.47 111.942C1728.41 111.765 1728.32 111.603 1728.2 111.467C1728.07 111.331 1727.92 111.225 1727.74 111.156C1724.27 109.062 1720.83 107.093 1717.44 104.873C1714.05 102.654 1710.36 100.413 1706.97 98.0251C1703.14 95.3863 1699.37 92.6218 1695.64 89.8364C1693.8 88.4542 1692.22 86.7369 1690.34 85.4174C1688.58 84.113 1687.11 82.4675 1686 80.5796C1685.31 79.5803 1684.96 78.3822 1685 77.1658C1685.05 75.9494 1685.49 74.7808 1686.26 73.836C1688.13 71.351 1690.91 69.6977 1693.98 69.2285C1696.9 68.5584 1699.85 68.1395 1702.78 67.6369C1705.71 67.1342 1708.64 66.6735 1711.58 66.2756C1713.36 66.0452 1715.18 66.0243 1716.98 65.8567L1725.23 65.0818C1726.11 65.0818 1726.99 64.9143 1727.89 64.8933L1734.17 64.6839C1737.04 64.5582 1739.91 64.4535 1742.78 64.286C1744.58 64.286 1746.38 64.0975 1748.16 63.8671C1748.41 63.8 1748.64 63.6813 1748.84 63.5189C1749.04 63.3565 1749.2 63.154 1749.32 62.9247C1750.28 60.8304 1751.14 58.7361 1752.04 56.6418C1752.94 54.5475 1753.82 52.4532 1754.74 50.2542C1756.14 47.008 1757.55 43.7409 1758.93 40.5157C1760.62 36.8507 1762.4 33.2485 1764.16 29.6254C1765.76 26.3792 1767.33 23.1331 1768.98 19.9078C1770.15 17.6251 1771.39 15.3842 1772.65 13.1433C1774.26 10.2741 1775.83 7.34206 1777.59 4.57759C1778.43 3.25413 1779.53 2.1087 1780.81 1.20577C1781.83 0.494684 1783.03 0.0809789 1784.28 0.0107246C1785.52 -0.0595297 1786.76 0.216422 1787.85 0.807857C1789.99 1.90721 1791.81 3.55477 1793.11 5.58285C1794.85 8.20738 1796.43 10.9427 1797.82 13.7716C1799.16 16.4941 1800.23 19.3424 1801.34 22.1487C1802.7 25.5834 1804 29.039 1805.3 32.4946C1806.59 35.9502 1808.04 39.7408 1809.36 43.3849C1810.3 45.9609 1811.24 48.5369 1812.04 51.1548C1812.84 53.7726 1813.48 56.5999 1814.13 59.3225C1814.2 59.863 1814.34 60.3917 1814.55 60.8932C1814.83 61.3024 1815.25 61.5993 1815.73 61.7309C1816.25 61.7506 1816.78 61.7013 1817.3 61.5843L1827.77 60.9979C1829.51 60.8932 1831.24 60.7466 1832.96 60.6L1842.01 59.8251L1844.94 59.6367L1854.74 59.0502C1856.28 58.9525 1857.81 58.8199 1859.35 58.6523C1860.1 58.6523 1860.86 58.3172 1861.63 58.2963C1862.71 58.1167 1863.81 58.1755 1864.86 58.4687C1865.91 58.7618 1866.88 59.2821 1867.71 59.9927C1868.59 60.8154 1869.21 61.8793 1869.49 63.0521C1869.78 64.225 1869.71 65.4551 1869.3 66.5897C1868.71 68.1499 1867.81 69.5748 1866.66 70.7783C1865.7 71.8045 1864.77 72.8726 1863.75 73.8569C1860.83 76.727 1857.68 79.3602 1854.34 81.7315C1851.14 83.8258 1848.06 86.2552 1844.84 88.4751C1841.61 90.6951 1838.36 92.7056 1835.16 94.9465C1831.96 97.1874 1829.3 98.8419 1826.39 100.831C1826.02 101.05 1825.75 101.393 1825.62 101.798C1825.49 102.202 1825.51 102.64 1825.67 103.03C1827.01 107.847 1828.14 112.727 1829.44 117.565C1830.32 120.853 1831.33 124.12 1832.33 127.387C1833.95 132.665 1835.6 137.859 1837.21 143.199C1837.67 144.728 1837.99 146.32 1838.41 147.869C1838.65 148.639 1838.74 149.451 1838.66 150.254C1838.58 151.058 1838.33 151.837 1837.94 152.543C1837.55 153.249 1837.01 153.867 1836.37 154.36C1835.73 154.853 1835 155.21 1834.22 155.409C1832.79 155.627 1831.33 155.57 1829.92 155.241C1827.33 154.76 1824.77 154.068 1822.2 153.44C1820 152.896 1817.8 152.33 1815.62 151.681C1812.56 150.773 1809.51 149.81 1806.47 148.791C1801.76 147.241 1797.02 145.691 1792.35 144.016C1788.29 142.55 1784.27 140.937 1780.25 139.346C1778.58 138.759 1776.96 138.059 1775.39 137.251C1774.92 136.949 1774.36 136.82 1773.8 136.889C1773.25 136.958 1772.73 137.22 1772.35 137.628C1769.3 139.995 1766.07 142.257 1763.08 144.623C1760.98 146.299 1758.89 148.058 1756.79 149.775L1750.51 154.885L1744.67 159.556L1743.95 160.037Z" fill="#FF7C2E"/>
<mask id="path-5-inside-1" fill="white">
<path d="M157.886 825.805C158.227 823.184 158.597 820.592 158.982 818.016C159.278 815.972 159.604 813.928 159.959 811.885C160.433 809.071 160.877 806.228 161.499 803.444C161.944 801.221 162.608 799.048 163.484 796.957C164.165 795.404 165.344 794.121 166.835 793.312C168.326 792.502 170.043 792.211 171.718 792.485C173.538 792.806 175.226 793.65 176.575 794.914C177.471 795.572 178.227 796.402 178.799 797.355C179.371 798.309 179.748 799.367 179.907 800.467C180.292 801.816 180.925 803.081 181.773 804.199C183.387 807.501 185.149 810.744 186.778 814.002C187.919 816.268 189 818.534 190.081 820.829C192.228 825.405 194.346 829.981 196.448 834.572C198.048 838.067 199.588 841.591 201.098 845.146C201.498 846.078 201.839 847.041 202.209 848.004C202.244 848.185 202.319 848.357 202.429 848.506C202.539 848.655 202.68 848.777 202.844 848.864C203.007 848.951 203.188 849 203.373 849.007C203.558 849.014 203.742 848.98 203.912 848.907C207.851 847.93 211.672 846.893 215.641 846.064C219.61 845.234 223.801 844.213 227.888 843.502C232.464 842.658 237.084 841.947 241.69 841.28C243.97 840.955 246.295 841.058 248.561 840.658C250.725 840.339 252.931 840.46 255.047 841.014C256.245 841.229 257.341 841.828 258.169 842.72C258.997 843.612 259.513 844.749 259.638 845.96C260.068 849.044 259.277 852.174 257.432 854.682C255.847 857.215 254.055 859.599 252.337 862.028C250.619 864.456 248.872 866.855 247.08 869.21C245.984 870.632 244.711 871.935 243.556 873.327L238.269 879.71C237.647 880.332 237.143 881.072 236.521 881.724L232.227 886.314C230.287 888.432 228.332 890.535 226.422 892.682C225.148 893.956 224.008 895.363 222.912 896.784C222.784 897.007 222.705 897.254 222.68 897.509C222.654 897.764 222.683 898.022 222.764 898.265C223.564 900.427 224.437 902.515 225.281 904.633C226.126 906.751 226.984 908.854 227.888 911.06C229.191 914.348 230.509 917.65 231.812 920.908C233.204 924.699 234.493 928.505 235.811 932.311C236.98 935.732 238.165 939.138 239.276 942.588C240.061 945.032 240.772 947.49 241.468 949.963C242.356 953.132 243.319 956.316 244.03 959.515C244.368 961.048 244.403 962.633 244.133 964.18C243.914 965.405 243.359 966.545 242.53 967.473C241.701 968.401 240.631 969.081 239.439 969.437C237.146 970.175 234.698 970.293 232.345 969.778C229.254 969.157 226.207 968.336 223.223 967.319C220.35 966.342 217.581 965.083 214.812 963.884C211.42 962.417 208.059 960.892 204.697 959.367C201.335 957.842 197.633 956.183 194.123 954.539C191.636 953.384 189.148 952.229 186.734 950.941C184.32 949.652 181.862 948.112 179.477 946.646C179.049 946.31 178.575 946.036 178.071 945.831C177.584 945.74 177.08 945.824 176.649 946.068C176.262 946.428 175.923 946.836 175.642 947.283L168.652 955.102C167.497 956.405 166.372 957.738 165.261 959.056L159.411 966.001L157.471 968.208L150.955 975.553C149.939 976.708 148.946 977.888 147.979 979.092C147.446 979.625 147.15 980.396 146.616 980.958C145.983 981.845 145.163 982.582 144.214 983.117C143.264 983.652 142.209 983.972 141.122 984.053C139.917 984.096 138.725 983.783 137.696 983.153C136.666 982.524 135.844 981.606 135.332 980.514C134.644 978.995 134.271 977.353 134.236 975.686C134.192 974.279 134.088 972.873 134.118 971.451C134.153 967.356 134.515 963.271 135.199 959.234C135.984 955.487 136.443 951.592 137.154 947.742C137.864 943.892 138.738 940.174 139.419 936.324C140.101 932.474 140.811 929.423 141.463 925.958C141.566 925.546 141.516 925.11 141.323 924.732C141.129 924.353 140.806 924.058 140.412 923.899C136.058 921.441 131.808 918.79 127.469 916.288C124.522 914.585 121.501 912.985 118.48 911.386C113.607 908.794 108.765 906.292 103.848 903.656C102.441 902.9 101.094 901.997 99.7018 901.197C98.9845 900.826 98.3507 900.312 97.8392 899.687C97.3278 899.062 96.9495 898.339 96.7276 897.562C96.5057 896.786 96.4449 895.972 96.5489 895.171C96.6529 894.37 96.9195 893.599 97.3324 892.904C98.1885 891.74 99.2591 890.75 100.487 889.987C102.664 888.491 104.959 887.173 107.225 885.796C109.165 884.626 111.119 883.471 113.119 882.39C115.923 880.87 118.761 879.394 121.634 877.962C126.062 875.726 130.504 873.475 134.991 871.357C138.901 869.521 142.885 867.818 146.853 866.1C148.446 865.337 150.088 864.684 151.77 864.145C152.317 864.027 152.804 863.721 153.148 863.279C153.492 862.838 153.67 862.29 153.651 861.732C154.139 857.896 154.821 854.016 155.265 850.225C155.561 847.559 155.798 844.835 156.065 842.139L156.894 834.083L157.723 826.649L157.886 825.805Z"/>
</mask>
<path d="M157.886 825.805L177.496 829.589L177.613 828.987L177.692 828.379L157.886 825.805ZM158.982 818.016L178.735 820.967L178.741 820.924L178.748 820.88L158.982 818.016ZM159.959 811.885L179.636 815.307L179.645 815.254L179.654 815.202L159.959 811.885ZM161.499 803.444L180.991 807.798L181.04 807.578L181.084 807.358L161.499 803.444ZM163.484 796.957L145.195 788.932L145.127 789.087L145.061 789.244L163.484 796.957ZM171.718 792.485L175.189 772.817L175.065 772.795L174.941 772.775L171.718 792.485ZM176.575 794.914L162.923 809.492L163.792 810.305L164.752 811.01L176.575 794.914ZM179.907 800.467L160.14 803.324L160.333 804.656L160.702 805.95L179.907 800.467ZM181.773 804.199L199.716 795.428L198.86 793.677L197.682 792.125L181.773 804.199ZM186.778 814.002L168.915 822.934L168.926 822.957L168.938 822.981L186.778 814.002ZM190.081 820.829L208.161 812.345L208.155 812.332L208.149 812.32L190.081 820.829ZM196.448 834.572L214.609 826.261L214.606 826.254L196.448 834.572ZM201.098 845.146L182.717 852.957L182.729 852.985L182.741 853.013L201.098 845.146ZM202.209 848.004L221.828 844.265L221.493 842.506L220.85 840.834L202.209 848.004ZM203.912 848.907L199.103 829.523L197.511 829.918L196.004 830.567L203.912 848.907ZM227.888 843.502L231.31 863.179L231.41 863.161L231.511 863.143L227.888 843.502ZM241.69 841.28L238.865 821.509L238.847 821.512L238.83 821.514L241.69 841.28ZM248.561 840.658L245.646 820.9L245.368 820.941L245.09 820.99L248.561 840.658ZM255.047 841.014L249.991 860.335L250.748 860.533L251.517 860.672L255.047 841.014ZM259.638 845.96L239.772 848.017L239.809 848.369L239.858 848.72L259.638 845.96ZM257.432 854.682L241.343 842.849L240.898 843.453L240.501 844.088L257.432 854.682ZM247.08 869.21L262.898 881.403L262.936 881.354L262.973 881.305L247.08 869.21ZM243.556 873.327L228.186 860.573L228.18 860.58L228.175 860.587L243.556 873.327ZM238.269 879.71L252.391 893.832L253.053 893.17L253.65 892.45L238.269 879.71ZM236.521 881.724L222.074 867.933L222.005 868.006L221.936 868.079L236.521 881.724ZM232.227 886.314L217.642 872.67L217.57 872.746L217.5 872.823L232.227 886.314ZM226.422 892.682L240.544 906.805L240.956 906.393L241.343 905.957L226.422 892.682ZM222.912 896.784L207.094 884.591L206.261 885.671L205.584 886.854L222.912 896.784ZM222.764 898.265L203.812 904.568L203.917 904.882L204.032 905.193L222.764 898.265ZM227.888 911.06L246.454 903.7L246.413 903.597L246.371 903.493L227.888 911.06ZM231.812 920.908L250.56 914.024L250.462 913.756L250.356 913.491L231.812 920.908ZM235.811 932.311L254.708 925.848L254.696 925.812L254.683 925.775L235.811 932.311ZM239.276 942.588L258.291 936.48L258.287 936.469L239.276 942.588ZM241.468 949.963L260.698 944.571L260.695 944.562L260.693 944.552L241.468 949.963ZM244.03 959.515L263.532 955.211L263.529 955.197L263.526 955.182L244.03 959.515ZM244.133 964.18L263.793 967.699L263.801 967.656L263.808 967.613L244.133 964.18ZM239.439 969.437L233.726 950.299L233.521 950.36L233.318 950.426L239.439 969.437ZM232.345 969.778L236.616 950.267L236.447 950.23L236.278 950.196L232.345 969.778ZM223.223 967.319L229.662 948.413L229.656 948.411L223.223 967.319ZM214.812 963.884L222.75 945.557L222.743 945.554L222.737 945.551L214.812 963.884ZM194.123 954.539L202.594 936.452L202.564 936.438L202.534 936.424L194.123 954.539ZM179.477 946.646L167.164 962.37L168.053 963.067L169.016 963.659L179.477 946.646ZM178.071 945.831L185.576 927.323L183.727 926.573L181.766 926.204L178.071 945.831ZM176.649 946.068L166.787 928.701L164.765 929.849L163.061 931.431L176.649 946.068ZM175.642 947.283L190.532 960.593L191.648 959.345L192.541 957.927L175.642 947.283ZM168.652 955.102L153.762 941.791L153.734 941.823L153.706 941.854L168.652 955.102ZM165.261 959.056L149.988 946.186L149.985 946.19L165.261 959.056ZM159.411 966.001L174.411 979.189L174.551 979.029L174.687 978.867L159.411 966.001ZM157.471 968.208L172.412 981.462L172.441 981.428L172.471 981.395L157.471 968.208ZM150.955 975.553L136.015 962.299L135.99 962.328L135.965 962.356L150.955 975.553ZM147.979 979.092L162.101 993.215L162.869 992.447L163.55 991.6L147.979 979.092ZM146.616 980.958L132.118 967.223L131.164 968.229L130.359 969.357L146.616 980.958ZM141.122 984.053L141.821 1004.01L142.221 1004L142.62 1003.97L141.122 984.053ZM135.332 980.514L117.139 988.753L117.193 988.874L117.249 988.993L135.332 980.514ZM134.236 975.686L154.204 975.263L154.202 975.16L154.198 975.056L134.236 975.686ZM134.118 971.451L154.086 971.867L154.088 971.746L154.089 971.625L134.118 971.451ZM135.199 959.234L115.651 955.139L115.572 955.517L115.507 955.898L135.199 959.234ZM141.463 925.958L122.085 921.123L121.943 921.691L121.835 922.267L141.463 925.958ZM140.412 923.899L130.592 941.291L131.743 941.941L132.97 942.434L140.412 923.899ZM127.469 916.288L117.475 933.58L117.483 933.584L117.49 933.588L127.469 916.288ZM118.48 911.386L109.1 929.019L109.118 929.028L109.135 929.037L118.48 911.386ZM103.848 903.656L94.4016 921.252L94.4112 921.258L103.848 903.656ZM99.7018 901.197L109.65 883.879L109.271 883.662L108.883 883.461L99.7018 901.197ZM97.3324 892.904L81.2415 881.073L80.6645 881.858L80.1665 882.695L97.3324 892.904ZM100.487 889.987L111.028 906.951L111.418 906.708L111.797 906.448L100.487 889.987ZM107.225 885.796L96.9108 868.693L96.8808 868.711L96.8509 868.729L107.225 885.796ZM113.119 882.39L122.618 899.958L122.629 899.953L122.639 899.947L113.119 882.39ZM121.634 877.962L130.541 895.838L130.589 895.814L130.637 895.79L121.634 877.962ZM134.991 871.357L126.501 853.28L126.484 853.288L126.467 853.296L134.991 871.357ZM146.853 866.1L154.787 884.429L155.139 884.277L155.484 884.111L146.853 866.1ZM151.77 864.145L147.542 844.626L146.598 844.83L145.678 845.125L151.77 864.145ZM153.651 861.732L133.839 859.207L133.636 860.8L133.69 862.405L153.651 861.732ZM155.265 850.225L175.101 852.55L175.108 852.49L175.115 852.431L155.265 850.225ZM156.065 842.139L136.197 840.094L136.193 840.134L136.189 840.174L156.065 842.139ZM156.894 834.083L137.045 831.869L137.035 831.954L137.027 832.038L156.894 834.083ZM157.723 826.649L138.113 822.865L137.962 823.645L137.874 824.435L157.723 826.649ZM177.692 828.379C178.011 825.921 178.362 823.461 178.735 820.967L139.229 815.064C138.832 817.723 138.442 820.447 138.08 823.231L177.692 828.379ZM178.748 820.88C179.017 819.024 179.313 817.166 179.636 815.307L140.283 808.463C139.895 810.691 139.54 812.92 139.216 815.151L178.748 820.88ZM179.654 815.202C180.186 812.046 180.517 809.92 180.991 807.798L142.008 799.089C141.238 802.536 140.681 806.096 140.265 808.568L179.654 815.202ZM181.084 807.358C181.268 806.437 181.544 805.537 181.906 804.671L145.061 789.244C143.673 792.559 142.619 796.005 141.915 799.529L181.084 807.358ZM181.773 804.983C180.673 807.488 178.772 809.556 176.368 810.862L157.302 775.761C151.917 778.686 147.658 783.32 145.195 788.932L181.773 804.983ZM176.368 810.862C173.964 812.168 171.194 812.637 168.494 812.195L174.941 772.775C168.893 771.785 162.688 772.836 157.302 775.761L176.368 810.862ZM168.246 812.153C166.251 811.801 164.402 810.876 162.923 809.492L190.227 780.336C186.049 776.424 180.825 773.811 175.189 772.817L168.246 812.153ZM164.752 811.01C163.512 810.099 162.465 808.951 161.673 807.631L195.925 787.08C193.989 783.853 191.43 781.044 188.398 778.817L164.752 811.01ZM161.673 807.631C160.882 806.311 160.36 804.847 160.14 803.324L199.674 797.61C199.135 793.886 197.861 790.306 195.925 787.08L161.673 807.631ZM160.702 805.95C161.768 809.681 163.518 813.182 165.863 816.273L197.682 792.125C198.332 792.981 198.817 793.95 199.112 794.984L160.702 805.95ZM163.829 812.969C165.209 815.792 167.986 821.076 168.915 822.934L204.642 805.071C202.313 800.412 201.565 799.21 199.716 795.428L163.829 812.969ZM168.938 822.981C169.96 825.011 170.953 827.09 172.012 829.339L208.149 812.32C207.046 809.978 205.877 807.525 204.618 805.024L168.938 822.981ZM172 829.314C174.118 833.826 176.209 838.345 178.291 842.889L214.606 826.254C212.482 821.617 210.338 816.985 208.161 812.345L172 829.314ZM178.288 842.883C179.793 846.172 181.258 849.524 182.717 852.957L219.479 837.334C217.918 833.659 216.303 829.962 214.609 826.261L178.288 842.883ZM182.741 853.013C182.948 853.495 182.934 853.524 183.568 855.173L220.85 840.834C220.744 840.558 220.049 838.661 219.456 837.278L182.741 853.013ZM182.59 851.742C183.185 854.862 184.472 857.809 186.358 860.364L218.499 836.648C220.165 838.905 221.303 841.509 221.828 844.265L182.59 851.742ZM186.358 860.364C188.244 862.92 190.679 865.019 193.485 866.508L212.203 831.22C214.681 832.535 216.833 834.39 218.499 836.648L186.358 860.364ZM193.485 866.508C196.291 867.996 199.395 868.835 202.568 868.963L204.178 829.051C206.982 829.164 209.724 829.906 212.203 831.22L193.485 866.508ZM202.568 868.963C205.742 869.091 208.904 868.504 211.82 867.247L196.004 830.567C198.581 829.456 201.374 828.938 204.178 829.051L202.568 868.963ZM208.722 868.291C213.212 867.177 216.241 866.342 219.726 865.614L211.556 826.514C207.103 827.444 202.491 828.682 199.103 829.523L208.722 868.291ZM219.726 865.614C224.645 864.586 227.608 863.822 231.31 863.179L224.466 823.825C219.993 824.603 214.574 825.883 211.556 826.514L219.726 865.614ZM231.511 863.143C235.715 862.367 240.043 861.699 244.55 861.047L238.83 821.514C234.125 822.195 229.212 822.948 224.265 823.861L231.511 863.143ZM244.514 861.052C244.482 861.056 244.57 861.043 244.876 861.02C245.228 860.994 245.564 860.977 246.255 860.938C247.364 860.875 249.596 860.756 252.032 860.327L245.09 820.99C245.26 820.96 245.197 820.99 244.007 821.057C243.168 821.104 241.042 821.198 238.865 821.509L244.514 861.052ZM251.476 860.417C250.981 860.49 250.476 860.462 249.991 860.335L260.104 821.692C255.387 820.458 250.47 820.189 245.646 820.9L251.476 860.417ZM251.517 860.672C248.452 860.121 245.649 858.589 243.531 856.307L272.808 829.133C269.033 825.066 264.039 822.337 258.578 821.356L251.517 860.672ZM243.531 856.307C241.412 854.024 240.093 851.115 239.772 848.017L279.504 843.903C278.932 838.384 276.582 833.2 272.808 829.133L243.531 856.307ZM239.858 848.72C239.568 846.644 240.101 844.537 241.343 842.849L273.52 866.516C278.452 859.811 280.569 851.444 279.419 843.2L239.858 848.72ZM240.501 844.088C239.315 845.983 238.193 847.439 236.032 850.494L268.643 873.561C269.917 871.759 272.379 868.447 274.362 865.277L240.501 844.088ZM236.032 850.494C234.419 852.774 232.811 854.981 231.187 857.115L262.973 881.305C264.933 878.73 266.82 876.138 268.643 873.561L236.032 850.494ZM231.262 857.017C231.157 857.153 230.95 857.403 230.386 858.041C229.949 858.534 229.028 859.558 228.186 860.573L258.925 886.081C259.238 885.704 259.531 885.38 260.294 884.518C260.929 883.801 261.907 882.689 262.898 881.403L231.262 857.017ZM228.175 860.587L222.888 866.969L253.65 892.45L258.937 886.067L228.175 860.587ZM224.146 865.587C223.55 866.183 223.065 866.725 222.71 867.135C222.368 867.531 222.074 867.892 221.93 868.067C221.838 868.181 221.802 868.225 221.755 868.281C221.718 868.327 221.71 868.336 221.718 868.326C221.732 868.31 221.863 868.155 222.074 867.933L250.968 895.514C251.491 894.966 251.918 894.475 252.221 894.117C252.5 893.786 252.772 893.452 252.86 893.344C252.998 893.175 252.985 893.193 252.932 893.255C252.866 893.331 252.676 893.547 252.391 893.832L224.146 865.587ZM221.936 868.079L217.642 872.67L246.812 899.958L251.106 895.368L221.936 868.079ZM217.5 872.823C215.691 874.798 213.539 877.115 211.5 879.407L241.343 905.957C243.125 903.955 244.883 902.066 246.954 899.805L217.5 872.823ZM212.299 878.56C210.101 880.758 208.337 882.979 207.094 884.591L238.73 908.977C239.679 907.746 240.195 907.153 240.544 906.805L212.299 878.56ZM205.584 886.854C204.058 889.515 203.112 892.469 202.807 895.522L242.553 899.496C242.299 902.038 241.511 904.498 240.24 906.715L205.584 886.854ZM202.807 895.522C202.502 898.574 202.844 901.657 203.812 904.568L241.716 891.963C242.522 894.387 242.807 896.954 242.553 899.496L202.807 895.522ZM204.032 905.193C204.946 907.664 206.052 910.329 206.729 912.028L243.834 897.238C242.823 894.702 242.182 893.191 241.496 891.337L204.032 905.193ZM206.729 912.028C207.611 914.241 208.502 916.421 209.405 918.627L246.371 903.493C245.467 901.286 244.64 899.26 243.834 897.238L206.729 912.028ZM209.321 918.42C210.635 921.735 211.962 925.059 213.268 928.326L250.356 913.491C249.056 910.241 247.747 906.96 246.454 903.7L209.321 918.42ZM213.064 927.792C214.372 931.354 215.559 934.865 216.938 938.847L254.683 925.775C253.426 922.145 252.037 918.045 250.56 914.024L213.064 927.792ZM216.913 938.774C218.129 942.33 219.226 945.482 220.264 948.708L258.287 936.469C257.104 932.794 255.832 929.133 254.708 925.848L216.913 938.774ZM220.261 948.696C220.933 950.789 221.566 952.971 222.242 955.374L260.693 944.552C259.977 942.009 259.188 939.274 258.291 936.48L220.261 948.696ZM222.237 955.355C223.275 959.058 223.979 961.354 224.533 963.848L263.526 955.182C262.658 951.278 261.437 947.207 260.698 944.571L222.237 955.355ZM224.527 963.819C224.304 962.809 224.281 961.765 224.458 960.747L263.808 967.613C264.526 963.501 264.432 959.288 263.532 955.211L224.527 963.819ZM224.474 960.66C224.906 958.246 225.999 956 227.633 954.17L257.427 980.775C260.719 977.09 262.922 972.563 263.793 967.699L224.474 960.66ZM227.633 954.17C229.266 952.341 231.376 951.001 233.726 950.299L245.152 988.574C249.887 987.161 254.136 984.461 257.427 980.775L227.633 954.17ZM233.318 950.426C234.384 950.083 235.522 950.028 236.616 950.267L228.075 989.288C233.875 990.557 239.907 990.268 245.559 988.448L233.318 950.426ZM236.278 950.196C234.036 949.746 231.826 949.151 229.662 948.413L216.784 986.225C220.588 987.521 224.473 988.567 228.412 989.359L236.278 950.196ZM229.656 948.411C227.763 947.767 225.996 946.963 222.75 945.557L206.873 982.21C209.166 983.203 212.937 984.916 216.79 986.227L229.656 948.411ZM222.737 945.551C219.537 944.168 216.338 942.717 212.949 941.179L196.445 977.554C199.779 979.067 203.303 980.667 206.886 982.216L222.737 945.551ZM212.949 941.179C209.466 939.599 205.959 938.028 202.594 936.452L185.652 972.626C189.307 974.337 193.205 976.084 196.445 977.554L212.949 941.179ZM202.534 936.424C199.961 935.23 197.98 934.304 196.138 933.321L177.33 968.56C180.315 970.154 183.31 971.538 185.713 972.654L202.534 936.424ZM196.138 933.321C194.399 932.393 192.582 931.258 189.939 929.633L169.016 963.659C171.141 964.966 174.241 966.911 177.33 968.56L196.138 933.321ZM191.791 930.922C189.897 929.438 187.805 928.227 185.576 927.323L170.565 964.34C169.345 963.845 168.2 963.182 167.164 962.37L191.791 930.922ZM181.766 926.204C176.635 925.238 171.327 926.123 166.787 928.701L186.511 963.436C182.832 965.525 178.532 966.242 174.375 965.459L181.766 926.204ZM163.061 931.431C161.401 932.972 159.95 934.722 158.743 936.638L192.541 957.927C191.897 958.95 191.122 959.884 190.237 960.706L163.061 931.431ZM160.752 933.972L153.762 941.791L183.542 968.413L190.532 960.593L160.752 933.972ZM153.706 941.854C152.363 943.37 151.086 944.884 149.988 946.186L180.533 971.926C181.658 970.592 182.631 969.44 183.598 968.35L153.706 941.854ZM149.985 946.19L144.135 953.135L174.687 978.867L180.537 971.922L149.985 946.19ZM144.412 952.814L142.472 955.02L172.471 981.395L174.411 979.189L144.412 952.814ZM142.531 954.954L136.015 962.299L165.896 988.807L172.412 981.462L142.531 954.954ZM135.965 962.356C134.749 963.737 133.563 965.147 132.408 966.585L163.55 991.6C164.33 990.629 165.129 989.679 165.946 988.75L135.965 962.356ZM133.856 964.97C132.696 966.13 131.867 967.215 131.348 967.944C130.859 968.63 130.47 969.256 130.393 969.378C130.221 969.652 130.379 969.394 130.584 969.099C130.827 968.75 131.34 968.043 132.118 967.223L161.115 994.694C162.159 993.592 162.91 992.578 163.375 991.91C163.611 991.569 163.804 991.274 163.936 991.07C164.057 990.882 164.173 990.696 164.202 990.651C164.255 990.567 164.233 990.602 164.192 990.665C164.146 990.736 164.038 990.9 163.884 991.115C163.588 991.532 162.995 992.321 162.101 993.215L133.856 964.97ZM130.359 969.357C131.427 967.861 132.81 966.618 134.411 965.716L154.016 1000.52C157.516 998.547 160.54 995.83 162.873 992.56L130.359 969.357ZM134.411 965.716C136.012 964.814 137.792 964.275 139.624 964.137L142.62 1003.97C146.626 1003.67 150.517 1002.49 154.016 1000.52L134.411 965.716ZM140.423 964.093C143.129 963.999 145.802 964.701 148.112 966.113L127.279 1000.19C131.648 1002.86 136.705 1004.19 141.821 1004.01L140.423 964.093ZM148.112 966.113C150.422 967.524 152.266 969.584 153.415 972.035L117.249 988.993C119.423 993.629 122.911 997.524 127.279 1000.19L148.112 966.113ZM153.525 972.275C153.951 973.215 154.182 974.231 154.204 975.263L114.269 976.109C114.361 980.475 115.337 984.776 117.139 988.753L153.525 972.275ZM154.198 975.056C154.118 972.507 154.07 972.622 154.086 971.867L114.15 971.035C114.106 973.123 114.266 976.052 114.274 976.317L154.198 975.056ZM154.089 971.625C154.116 968.59 154.384 965.562 154.89 962.569L115.507 955.898C114.646 960.98 114.191 966.122 114.146 971.277L154.089 971.625ZM154.747 963.329C155.252 960.915 155.63 958.566 155.935 956.622C156.262 954.534 156.501 952.955 156.794 951.368L117.513 944.116C117.095 946.379 116.749 948.672 116.473 950.431C116.175 952.333 115.93 953.806 115.651 955.139L154.747 963.329ZM156.794 951.368C157.101 949.705 157.446 948.053 157.853 946.09C158.244 944.207 158.688 942.052 159.086 939.804L119.753 932.845C119.469 934.446 119.136 936.075 118.742 937.976C118.364 939.797 117.917 941.928 117.513 944.116L156.794 951.368ZM159.086 939.804C159.861 935.421 160.123 934.797 161.091 929.649L121.835 922.267C121.5 924.049 120.34 929.527 119.753 932.845L159.086 939.804ZM160.841 930.793C162.112 925.701 161.496 920.321 159.109 915.647L123.537 933.817C121.536 929.9 121.02 925.391 122.085 921.123L160.841 930.793ZM159.109 915.647C156.722 910.973 152.723 907.321 147.853 905.365L132.97 942.434C128.888 940.795 125.537 937.734 123.537 933.817L159.109 915.647ZM150.231 906.508C145.418 903.791 143.145 902.273 137.447 898.987L117.49 933.588C120.471 935.308 126.697 939.092 130.592 941.291L150.231 906.508ZM137.462 898.995C134.14 897.076 130.789 895.305 127.824 893.735L109.135 929.037C112.212 930.666 114.903 932.093 117.475 933.58L137.462 898.995ZM127.859 893.753C122.53 890.919 118.344 888.766 113.285 886.054L94.4112 921.258C99.1858 923.817 104.684 926.67 109.1 929.019L127.859 893.753ZM113.295 886.059C113.125 885.968 112.847 885.807 112.193 885.407C111.678 885.091 110.656 884.457 109.65 883.879L89.7532 918.515C90.1393 918.737 90.4879 918.954 91.3458 919.479C92.0658 919.92 93.1648 920.588 94.4016 921.252L113.295 886.059ZM108.883 883.461C110.583 884.341 112.085 885.559 113.297 887.04L82.3815 912.334C84.6165 915.066 87.3862 917.312 90.5204 918.934L108.883 883.461ZM113.297 887.04C114.509 888.522 115.406 890.235 115.931 892.075L77.524 903.049C78.4935 906.442 80.1465 909.602 82.3815 912.334L113.297 887.04ZM115.931 892.075C116.457 893.916 116.601 895.844 116.355 897.742L76.743 892.599C76.2886 896.099 76.5544 899.655 77.524 903.049L115.931 892.075ZM116.355 897.742C116.108 899.64 115.477 901.468 114.498 903.113L80.1665 882.695C78.3625 885.729 77.1975 889.099 76.743 892.599L116.355 897.742ZM113.423 904.735C112.773 905.62 111.96 906.372 111.028 906.951L89.9457 873.023C86.5583 875.128 83.604 877.86 81.2415 881.073L113.423 904.735ZM111.797 906.448C113.362 905.373 114.763 904.586 117.599 902.863L96.8509 868.729C95.1552 869.76 91.9656 871.61 89.1766 873.526L111.797 906.448ZM117.539 902.899C119.402 901.775 121.038 900.813 122.618 899.958L103.619 864.822C101.201 866.129 98.9276 867.477 96.9108 868.693L117.539 902.899ZM122.639 899.947C125.239 898.537 127.873 897.167 130.541 895.838L112.727 860.086C109.649 861.62 106.606 863.202 103.598 864.833L122.639 899.947ZM130.637 895.79C135.129 893.521 139.317 891.4 143.516 889.419L126.467 853.296C121.691 855.55 116.994 857.931 112.631 860.134L130.637 895.79ZM143.482 889.435C147.046 887.761 150.684 886.205 154.787 884.429L138.92 847.771C135.085 849.431 130.756 851.281 126.501 853.28L143.482 889.435ZM155.484 884.111C156.254 883.742 157.049 883.426 157.862 883.166L145.678 845.125C143.128 845.942 140.637 846.932 138.223 848.089L155.484 884.111ZM155.998 883.665C161.117 882.556 165.684 879.686 168.903 875.554L137.393 851.004C139.925 847.755 143.516 845.498 147.542 844.626L155.998 883.665ZM168.903 875.554C172.121 871.423 173.788 866.293 173.611 861.058L133.69 862.405C133.551 858.288 134.862 854.253 137.393 851.004L168.903 875.554ZM173.463 864.256C173.674 862.599 173.928 860.918 174.228 858.908C174.514 856.994 174.838 854.793 175.101 852.55L135.428 847.9C135.247 849.448 135.009 851.083 134.721 853.015C134.447 854.852 134.116 857.028 133.839 859.207L173.463 864.256ZM175.115 852.431C175.427 849.625 175.707 846.463 175.94 844.105L136.189 840.174C135.889 843.206 135.695 845.494 135.415 848.019L175.115 852.431ZM175.932 844.184L176.761 836.128L137.027 832.038L136.197 840.094L175.932 844.184ZM176.743 836.297L177.572 828.863L137.874 824.435L137.045 831.869L176.743 836.297ZM177.333 830.433L177.496 829.589L138.276 822.021L138.113 822.865L177.333 830.433Z" fill="#FF7C2E" mask="url(#path-5-inside-1)"/>
</svg>
