<svg width="1920" height="1598" viewBox="0 0 1920 1598" fill="none" xmlns="http://www.w3.org/2000/svg">
<path fill-rule="evenodd" clip-rule="evenodd" d="M160.561 963.874C157.975 656.212 -157.707 573.395 62.3445 358.361C282.671 143.059 654.005 434.786 961.739 420.702C1220.21 408.874 1469.61 178.727 1706.35 283.123C1944.08 387.953 1986.02 699.144 2110.43 927.237C2240.95 1166.54 1868.2 611.915 1827.06 881.373C1785.88 1151.1 1790.47 747.073 1585.56 927.237C1394.22 1095.47 1460.98 892.648 1208.56 927.237C957.252 961.673 1044.76 1055.74 826.058 927.237C618.549 805.313 596.275 1148.71 502.062 927.237C410.243 711.393 162.532 1198.43 160.561 963.874Z" fill="#FF7C2E"/>
<path fill-rule="evenodd" clip-rule="evenodd" d="M1712.64 635.452C1751.52 943.666 2164.69 1013.49 1908.21 1238.17C1651.42 1463.12 1142.94 1186.26 751.136 1213.21C422.054 1235.85 129.798 1476.89 -184.944 1382.15C-500.995 1287.01 -590.593 976.906 -776.014 753.514C-970.545 519.145 -429.869 1059.41 -408.427 787.654C-386.964 515.63 -346.126 920.716 -104.973 731.617C120.203 555.046 58.3021 761.082 377.018 715.889C694.332 670.895 571.583 580.281 866.044 699.931C1145.44 813.46 1134.22 468.4 1280.27 686.415C1422.61 898.891 1683.01 400.478 1712.64 635.452Z" fill="#FF7C2E"/>
</svg>
