<svg width="109" height="106" viewBox="0 0 109 106" fill="none" xmlns="http://www.w3.org/2000/svg">
<path d="M64.0323 1.31229C43.5701 15.1104 23.108 28.9086 2.64583 42.7067C2.63249 42.7157 2.61778 42.7319 2.60444 42.7409C1.14966 43.8478 -0.425325 45.9421 0.331152 46.9741C14.5282 66.3413 28.7221 85.7043 42.9191 105.072C43.302 105.594 44.5171 104.749 44.8017 104.557C65.2639 90.7592 85.726 76.961 106.188 63.1629C107.193 62.4851 109.451 60.1886 108.503 58.8955C94.3058 39.5283 80.1119 20.1653 65.9149 0.798104C65.532 0.275802 64.3169 1.12036 64.0323 1.31229ZM55.7517 93.7117C53.6615 95.1212 45.7121 100.305 46.1941 100.446C47.1067 100.712 41.1881 92.2028 40.4501 91.1961C35.5747 84.5452 30.6993 77.8943 25.8209 71.2392C19.167 62.1621 12.51 53.0808 5.85612 44.0038C14.4706 38.1948 23.0806 32.3888 31.6951 26.5799C38.8242 21.7726 45.9532 16.9653 53.0823 12.1579C55.1725 10.7484 63.1219 5.56424 62.6399 5.42349C61.7273 5.15768 67.6459 13.6669 68.3838 14.6735C73.2592 21.3244 78.1377 27.9795 83.0131 34.6304C89.667 43.7075 96.324 52.7888 102.978 61.8659C94.3634 67.6748 85.7534 73.4808 77.1389 79.2897C70.0098 84.097 62.8808 88.9043 55.7517 93.7117Z" fill="#0070DA"/>
</svg>
