<svg width="84" height="85" viewBox="0 0 84 85" fill="none" xmlns="http://www.w3.org/2000/svg">
<path d="M37.1372 1.43704C37.2026 1.07667 37.2639 0.84584 37.6731 0.923668C44.5343 2.17001 51.3956 3.41635 58.2612 4.65976C59.6298 4.90763 60.7015 8.84616 60.5032 9.96039C59.1495 17.42 57.8033 24.881 56.4497 32.3406C64.8449 33.8648 73.2446 35.386 81.643 36.9144C83.0116 37.1623 84.0833 41.1009 83.8806 42.218C82.6909 48.7954 81.5012 55.3728 80.3071 61.9531C80.2417 62.3135 80.1804 62.5443 79.7712 62.4665C74.8833 61.5812 55.1469 55.1631 51.8818 57.2555C48.7358 59.2688 47.9463 79.2848 47.1102 83.9349C47.0448 84.2953 46.9835 84.5261 46.5743 84.4483C39.7131 83.202 32.8519 81.9556 25.9862 80.7122C25.0538 80.5433 24.1808 78.2488 23.9263 76.591C23.7836 76.1148 23.6945 75.6855 23.7442 75.4116C25.0979 67.952 26.4441 60.491 27.7978 53.0314C19.4025 51.5072 11.0028 49.986 2.60442 48.4575C1.2358 48.2097 0.164107 44.2711 0.362419 43.1569C1.55213 36.5795 2.74183 30.0021 3.93595 23.4218C4.00134 23.0614 4.06265 22.8306 4.47183 22.9084C9.35974 23.7937 29.0961 30.2118 32.3612 28.1194C35.5072 26.1061 36.2967 6.09007 37.1372 1.43704ZM34.9979 33.3426C34.9325 33.703 34.8712 33.9338 34.462 33.856C28.3408 32.7474 13.5877 27.1388 8.08359 29.0713C5.37085 30.0242 4.48765 37.3308 3.78593 43.1665C12.2533 44.7 20.7194 46.2407 29.1867 47.7742C30.5554 48.0221 31.627 51.9606 31.4243 53.0778C30.0685 60.5705 28.7127 68.0632 27.3569 75.5559C33.4771 76.9696 42.6294 79.3939 44.6614 77.3127C46.5841 75.3421 46.7392 65.8415 47.2441 63.0595C47.9111 59.3837 48.575 55.7037 49.2421 52.028C49.3075 51.6676 49.3688 51.4368 49.7779 51.5146C55.8991 52.6232 70.6522 58.2318 76.1563 56.2993C78.8691 55.3465 79.7523 48.0398 80.454 42.2041C71.9866 40.6706 63.5205 39.1299 55.0532 37.5964C53.6846 37.3485 52.6129 33.41 52.8112 32.2958C54.167 24.803 55.5228 17.3103 56.8786 9.8176C50.7584 8.40397 41.6061 5.97967 39.5741 8.06081C37.6514 10.0315 37.4963 19.532 36.9914 22.314C36.3319 25.9911 35.6649 29.6669 34.9979 33.3426Z" fill="#FF7C2E"/>
</svg>
