<svg width="84" height="78" viewBox="0 0 84 78" fill="none" xmlns="http://www.w3.org/2000/svg">
<path d="M79.6076 0.999802C54.5514 1.77495 29.4953 2.55009 4.43919 3.32523C4.42285 3.32574 4.4012 3.33158 4.38487 3.33208C2.53058 3.49263 0.00433238 4.41691 0.0377838 5.67991C0.665581 29.3831 1.29324 53.0811 1.92104 76.7842C1.93797 77.4234 3.44047 77.3563 3.789 77.3455C28.8451 76.5704 53.9012 75.7953 78.9574 75.0201C80.1881 74.982 83.4007 74.248 83.3588 72.6654C82.731 48.9623 82.1033 25.2643 81.4755 1.56113C81.4586 0.9219 79.9561 0.98902 79.6076 0.999802ZM19.2018 74.0311C16.6422 74.1103 7.01024 74.2638 7.33075 74.6357C7.93801 75.3392 7.92824 65.0931 7.89561 63.861C7.68001 55.7211 7.46442 47.5812 7.24869 39.4361C6.95446 28.3269 6.66008 17.2125 6.36585 6.10326C16.9144 5.77693 27.4574 5.45077 38.0059 5.12443C46.7356 4.85437 55.4652 4.58431 64.1948 4.31425C66.7543 4.23506 76.3863 4.08155 76.0658 3.70968C75.4585 3.00615 75.4683 13.2523 75.5009 14.4843C75.7165 22.6242 75.9323 30.7693 76.1479 38.9092C76.4421 50.0184 76.7365 61.1328 77.0307 72.2421C66.4822 72.5684 55.9391 72.8946 45.3906 73.2209C36.661 73.491 27.9314 73.761 19.2018 74.0311Z" fill="#FF7C2E"/>
</svg>
