<svg width="88" height="83" viewBox="0 0 88 83" fill="none" xmlns="http://www.w3.org/2000/svg">
<path d="M68.1952 76.2263C68.3236 76.6255 68.1039 77.0839 67.6839 77.2051C60.9998 79.07 54.3157 80.935 47.6291 82.8044C46.2156 83.1996 43.5863 80.7705 43.1143 79.2536C43.0983 79.2161 43.0558 79.1708 43.0422 79.1287C40.7012 71.8634 38.3626 64.5934 36.0216 57.328C27.8775 59.605 19.7312 61.8749 11.5872 64.1518C9.683 64.6842 7.46667 61.9259 7.00032 60.4761C4.94087 54.0862 2.88142 47.6963 0.824503 41.3018C0.696086 40.9026 0.915838 40.4442 1.33583 40.323C6.11573 38.9905 26.881 35.7612 28.4347 33.0101C29.9706 30.2906 21.3675 11.8216 19.8938 7.25267C19.7654 6.85346 19.9851 6.39508 20.4051 6.27384C27.0892 4.40892 33.7733 2.544 40.4599 0.674547C42.3641 0.142174 44.5804 2.90041 45.0467 4.3502C47.3878 11.6156 49.7263 18.8855 52.0674 26.1509C60.2115 23.874 68.3578 21.6041 76.5018 19.3272C78.406 18.7948 80.6223 21.553 81.0887 23.0028C83.1481 29.3927 85.2076 35.7827 87.2645 42.1771C87.3929 42.5763 87.1732 43.0347 86.7532 43.1559C81.9733 44.4885 61.208 47.7177 59.6543 50.4689C58.1184 53.1884 66.7263 71.6598 68.1952 76.2263ZM54.612 47.1763C54.4836 46.7771 54.7033 46.3187 55.1233 46.1975C61.3753 44.4534 76.4187 43.2017 80.8174 39.0215C81.2419 38.6166 81.4782 38.4704 81.6422 38.4093C81.6644 38.2923 81.6687 38.2186 81.709 38.0585C82.0364 36.7685 80.2127 33.4195 79.8458 32.2664C79.0505 29.7941 78.2552 27.3217 77.4574 24.8539C69.3134 27.1308 61.1671 29.4008 53.023 31.6777C51.1188 32.21 48.9025 29.4518 48.4362 28.002C46.0951 20.7366 43.7566 13.4667 41.4155 6.20131C38.2882 7.07563 35.1562 7.94747 32.0289 8.82179C31.1794 9.05931 26.6759 9.79933 25.9722 10.5152C25.8429 10.6467 25.7713 10.6973 25.6795 10.784C25.6995 10.9578 25.693 11.223 25.576 11.7404C24.9125 14.6779 29.0796 22.6197 30.0348 25.5894C31.1838 29.1613 32.3376 32.7357 33.4866 36.3076C33.615 36.7068 33.3953 37.1652 32.9753 37.2864C26.7233 39.0306 11.6799 40.2822 7.28119 44.4624C6.85667 44.8673 6.62034 45.0135 6.4564 45.0747C6.43414 45.1916 6.42991 45.2653 6.38961 45.4254C6.06221 46.7154 7.88583 50.0644 8.25277 51.2175C9.04806 53.6898 9.84333 56.1622 10.6411 58.63C18.7852 56.3531 26.9315 54.0831 35.0755 51.8062C36.9797 51.2739 39.1961 54.0321 39.6624 55.4819C42.0035 62.7473 44.342 70.0172 46.6831 77.2826C49.8103 76.4083 52.9424 75.5364 56.0696 74.6621C56.9192 74.4246 61.4227 73.6846 62.1264 72.9688C62.2557 72.8372 62.3273 72.7866 62.4239 72.7024C62.4039 72.5286 62.4104 72.2634 62.5273 71.746C63.1909 68.8085 59.0237 60.8666 58.0685 57.897C56.9147 54.3226 55.7657 50.7507 54.612 47.1763Z" fill="#0070DA"/>
</svg>
