<svg width="107" height="99" viewBox="0 0 107 99" fill="none" xmlns="http://www.w3.org/2000/svg">
<path d="M1.47932 31.912C23.8367 21.5859 46.1941 11.2598 68.5516 0.933736C68.5661 0.927002 68.588 0.922698 68.6025 0.915964C70.307 0.244088 72.9703 -0.0401092 73.5517 1.10444C84.4633 22.5846 95.3725 44.06 106.284 65.5402C106.578 66.1195 105.228 66.7202 104.917 66.8638C82.5593 77.1899 60.2019 87.516 37.8444 97.8421C36.7462 98.3493 33.5728 99.1056 32.8443 97.6714C21.9327 76.1913 11.0235 54.7158 0.111954 33.2357C-0.182312 32.6564 1.16833 32.0557 1.47932 31.912ZM89.7918 70.6773C92.0756 69.6225 100.6 65.5237 100.499 65.9973C100.306 66.8937 95.3601 57.7236 94.793 56.6071C91.0458 49.2306 87.2987 41.8541 83.5492 34.4729C78.4351 24.4056 73.3187 14.3336 68.2046 4.2662C58.7923 8.61344 49.3848 12.9584 39.9724 17.3057C32.183 20.9033 24.3936 24.501 16.6042 28.0986C14.3204 29.1534 5.79569 33.2522 5.89706 32.7786C6.08962 31.8821 11.0359 41.0523 11.603 42.1688C15.3502 49.5453 19.0997 56.9264 22.8468 64.3029C27.9609 74.3703 33.0773 84.4423 38.1914 94.5097C47.6037 90.1624 57.0113 85.8174 66.4236 81.4702C74.213 77.8726 82.0024 74.2749 89.7918 70.6773Z" fill="#0070DA"/>
</svg>
