<svg width="90" height="84" viewBox="0 0 90 84" fill="none" xmlns="http://www.w3.org/2000/svg">
<path d="M11.3936 0.83715C36.2055 4.05398 61.0174 7.2708 85.8293 10.4876C85.8455 10.4897 85.8664 10.4976 85.8826 10.4997C87.7079 10.84 90.1204 12.0027 89.9541 13.2508C86.8333 36.6741 83.7131 60.0923 80.5923 83.5156C80.5081 84.1472 79.0225 83.9339 78.6773 83.8892C53.8654 80.6723 29.0535 77.4555 4.2416 74.2387C3.02284 74.0807 -0.0915543 73.0395 0.116818 71.4755C3.23765 48.0522 6.3578 24.634 9.47863 1.21074C9.56279 0.579056 11.0485 0.792404 11.3936 0.83715ZM63.7137 79.0989C66.2483 79.4275 75.8016 80.521 75.444 80.8581C74.7666 81.4958 75.8557 71.3451 76.0179 70.1276C77.0897 62.0838 78.1614 54.04 79.2338 45.9911C80.6965 35.013 82.1598 24.0298 83.6225 13.0517C73.1768 11.6975 62.7365 10.3439 52.2908 8.98964C43.6463 7.86889 35.0017 6.74814 26.3572 5.62739C23.8226 5.29878 14.2693 4.20531 14.6269 3.86819C15.3043 3.2305 14.2152 13.3812 14.053 14.5987C12.9813 22.6425 11.9089 30.6914 10.8371 38.7352C9.37446 49.7133 7.91111 60.6965 6.44843 71.6746C16.8941 73.0288 27.3344 74.3824 37.7801 75.7367C46.4247 76.8574 55.0692 77.9782 63.7137 79.0989Z" fill="#FF7C2E"/>
</svg>
