<svg width="86" height="83" viewBox="0 0 86 83" fill="none" xmlns="http://www.w3.org/2000/svg">
<path d="M23.3007 78.6717C23.2232 79.0827 23.4991 79.5135 23.9316 79.5869C30.8081 80.6903 37.6845 81.7937 44.564 82.9013C46.0183 83.1354 48.3263 80.4273 48.6049 78.8673C48.6161 78.8282 48.6527 78.7784 48.6609 78.7351C50.0753 71.2542 51.4867 63.7692 52.9011 56.2883C61.2801 57.6373 69.6605 58.9791 78.0395 60.3281C79.9986 60.6436 81.8549 57.6547 82.1363 56.162C83.3808 49.5825 84.6253 43.003 85.8667 36.4193C85.9442 36.0083 85.6683 35.5775 85.2357 35.5041C80.3184 34.7162 59.2774 33.8362 57.3881 31.277C55.5205 28.7473 61.7515 9.43325 62.6425 4.72865C62.72 4.31761 62.4441 3.88684 62.0115 3.81347C55.135 2.71008 48.2586 1.60669 41.3791 0.499075C39.42 0.183657 37.5637 3.17256 37.2822 4.66525C35.8678 12.1461 34.4564 19.6312 33.042 27.1121C24.663 25.763 16.2826 24.4212 7.90362 23.0722C5.9445 22.7568 4.08825 25.7457 3.80679 27.2384C2.5623 33.8179 1.31781 40.3973 0.0764113 46.981C-0.00108839 47.3921 0.274822 47.8228 0.707405 47.8962C5.62472 48.6842 26.6657 49.5642 28.555 52.1234C30.4227 54.653 24.1872 73.9701 23.3007 78.6717ZM33.1525 48.2867C33.23 47.8757 32.9541 47.4449 32.5215 47.3715C26.0897 46.3397 10.9831 46.7829 6.08715 43.123C5.61445 42.7683 5.36123 42.6495 5.19065 42.6072C5.15385 42.4935 5.14039 42.4208 5.08026 42.2662C4.59297 41.0212 5.98481 37.4895 6.20472 36.3026C6.68469 33.7571 7.16466 31.2116 7.64773 28.6704C16.0267 30.0194 24.4071 31.3612 32.7861 32.7102C34.7452 33.0256 36.6015 30.0367 36.8829 28.544C38.2974 21.0632 39.7087 13.5781 41.1232 6.09723C44.3407 6.61524 47.5626 7.13026 50.7801 7.64827C51.6541 7.789 56.2224 8.01926 57.0116 8.65155C57.1566 8.76777 57.234 8.80996 57.3362 8.88585C57.3381 9.06077 57.3779 9.32349 57.559 9.82446C58.5872 12.6685 55.443 21.0262 54.8665 24.0837C54.173 27.7614 53.4751 31.442 52.7817 35.1196C52.7042 35.5307 52.9801 35.9615 53.4127 36.0348C59.8445 37.0666 74.9511 36.6234 79.8471 40.2833C80.3198 40.6381 80.573 40.7569 80.7436 40.7992C80.7804 40.9128 80.7938 40.9856 80.854 41.1402C81.3412 42.3851 79.9494 45.9169 79.7295 47.1037C79.2495 49.6492 78.7695 52.1947 78.2865 54.736C69.9075 53.387 61.5271 52.0452 53.1481 50.6961C51.189 50.3807 49.3328 53.3696 49.0513 54.8623C47.6369 62.3432 46.2255 69.8283 44.811 77.3091C41.5936 76.7911 38.3716 76.2761 35.1542 75.7581C34.2801 75.6173 29.7118 75.3871 28.9227 74.7548C28.7777 74.6386 28.7002 74.5964 28.5936 74.5235C28.5917 74.3486 28.5519 74.0858 28.3707 73.5849C27.3426 70.7408 30.4868 62.3831 31.0633 59.3256C31.7612 55.645 32.4546 51.9673 33.1525 48.2867Z" fill="#0070DA"/>
</svg>
