<svg width="87" height="79" viewBox="0 0 87 79" fill="none" xmlns="http://www.w3.org/2000/svg">
<path d="M1.08019 31.7345C0.73869 31.567 0.525324 31.4418 0.716336 31.0878C3.86073 25.1342 7.00512 19.1805 10.1478 13.222C10.7743 12.0342 15.0014 12.2181 16.0584 12.7324C23.1273 16.1996 30.1998 19.6603 37.2687 23.1275C41.1153 15.8425 44.9602 8.55251 48.8119 1.26591C49.4384 0.0781065 53.6656 0.262059 54.7242 0.781305C60.9582 3.83486 67.1922 6.88842 73.428 9.94692C73.7695 10.1144 73.9828 10.2396 73.7918 10.5936C71.5544 14.8358 59.6825 31.1185 60.8659 34.7507C62.0036 38.2496 81.7589 44.9326 86.1676 47.0868C86.5091 47.2543 86.7225 47.3795 86.5315 47.7335C83.3871 53.6871 80.2427 59.6407 77.1 65.5993C76.6732 66.4086 74.1416 66.5305 72.4168 66.2719C71.902 66.2618 71.449 66.2162 71.1894 66.0889C64.1205 62.6217 57.048 59.161 49.9791 55.6938C46.1325 62.9788 42.2876 70.2688 38.4359 77.5554C37.8094 78.7432 33.5822 78.5592 32.5253 78.0449C26.2913 74.9914 20.0573 71.9378 13.8215 68.8793C13.48 68.7118 13.2667 68.5866 13.4577 68.2326C15.6951 63.9905 27.567 47.7077 26.3836 44.0755C25.2459 40.5766 5.49062 33.8936 1.08019 31.7345ZM32.3262 43.1992C32.6677 43.3667 32.8811 43.4918 32.69 43.8459C29.8881 49.1583 20.2044 61.0886 20.6081 66.737C20.8075 69.521 27.8541 72.509 33.4832 74.8921C37.3591 67.5434 41.2418 60.1981 45.1177 52.8494C45.7442 51.6616 49.9713 51.8455 51.03 52.3648C58.1314 55.8438 65.2328 59.3228 72.3342 62.8018C75.4403 57.581 80.3948 49.866 78.881 47.3737C77.447 45.0151 68.0094 42.0455 65.3731 40.7525C61.8898 39.044 58.4014 37.3371 54.9182 35.6286C54.5767 35.4611 54.3633 35.336 54.5543 34.9819C57.3562 29.6695 67.04 17.7392 66.6363 12.0908C66.4368 9.30679 59.3902 6.3188 53.7611 3.93571C49.8852 11.2844 46.0025 18.6297 42.1267 25.9784C41.5002 27.1662 37.273 26.9823 36.2161 26.468C29.1147 22.989 22.0133 19.51 14.9118 16.031C11.8058 21.2518 6.85123 28.9668 8.36509 31.459C9.79901 33.8176 19.2366 36.7872 21.873 38.0803C25.3597 39.7822 28.8429 41.4907 32.3262 43.1992Z" fill="#FF7C2E"/>
</svg>
