<svg width="83" height="77" viewBox="0 0 83 77" fill="none" xmlns="http://www.w3.org/2000/svg">
<path d="M75.648 13.3373C75.8729 13.0395 76.0035 12.8354 75.6613 12.6087C69.9663 8.7653 64.2714 4.92194 58.5756 1.07348C57.4402 0.306314 53.7422 2.33249 53.044 3.25052C48.3873 9.41455 43.7244 15.5744 39.0678 21.7384C32.1001 17.0351 25.1317 12.3268 18.1587 7.6244C17.0233 6.85723 13.3253 8.88341 12.6279 9.80653C8.51929 15.2389 4.41067 20.6713 0.302918 26.1087C0.0779583 26.4065 -0.0526727 26.6106 0.28958 26.8373C4.34465 29.5772 22.8513 38.6452 23.547 42.3581C24.2192 45.9337 9.75211 60.5187 6.84389 64.3559C6.61893 64.6536 6.4883 64.8577 6.83056 65.0845C12.5255 68.9279 18.2204 72.7712 23.9163 76.6197C24.6899 77.1424 27.0167 76.1328 28.4369 75.1448C28.8931 74.9089 29.2769 74.6689 29.4479 74.4426C34.1045 68.2786 38.7674 62.1188 43.4241 55.9547C50.3917 60.658 57.3602 65.3664 64.3332 70.0688C65.4686 70.8359 69.1666 68.8097 69.8648 67.8917C73.9734 62.4593 78.082 57.027 82.1898 51.5895C82.4148 51.2918 82.5454 51.0877 82.2031 50.8609C78.1481 48.121 59.6414 39.053 58.9457 35.3401C58.2735 31.7645 72.7406 17.1795 75.648 13.3373ZM53.1984 37.1915C52.9734 37.4893 52.8428 37.6934 53.185 37.9201C58.2632 41.3513 72.7056 47.5607 75.0744 52.701C76.2416 55.2347 71.3733 60.9679 67.4825 65.5445C60.4579 60.7982 53.4288 56.0579 46.4041 51.3116C45.2687 50.5444 41.5707 52.5706 40.8734 53.4937C36.1934 59.6824 31.5133 65.8711 26.8333 72.0599C21.527 68.8434 13.3589 64.2511 13.5103 61.3938C13.6548 58.6893 20.6739 51.9176 22.4106 49.6188C24.7052 46.5814 27.0051 43.5432 29.2997 40.5059C29.5247 40.2081 29.6553 40.004 29.313 39.7772C24.2348 36.3461 9.7925 30.1367 7.42363 24.9964C6.25647 22.4626 11.1247 16.7294 15.0156 12.1529C22.0402 16.8992 29.0693 21.6395 36.094 26.3858C37.2294 27.153 40.9273 25.1268 41.6256 24.2088C46.3056 18.02 50.9856 11.8313 55.6656 5.64259C60.972 8.85907 69.14 13.4514 68.9886 16.3086C68.8442 19.0131 61.825 25.7848 60.0884 28.0837C57.7875 31.1168 55.493 34.1541 53.1984 37.1915Z" fill="#0070DA"/>
</svg>
