<svg width="85" height="85" viewBox="0 0 85 85" fill="none" xmlns="http://www.w3.org/2000/svg">
<path d="M37.7924 83.4025C37.8721 83.8124 38.2898 84.1205 38.7217 84.042C45.5646 82.7348 52.4074 81.4277 59.2547 80.1234C60.7022 79.8477 61.8588 76.5368 61.5418 74.9867C61.5379 74.9464 61.5536 74.8875 61.5452 74.8444C60.0984 67.3843 58.6471 59.9214 57.2002 52.4613C65.54 50.8728 73.8783 49.277 82.2181 47.6885C84.168 47.3171 84.798 43.8977 84.5086 42.4095C83.2365 35.8481 81.9644 29.2868 80.6879 22.7226C80.6082 22.3128 80.1905 22.0046 79.7585 22.0832C74.8656 23.0189 54.8519 29.3475 52.1363 27.6019C49.452 25.8764 48.1298 5.73965 47.2212 1.04764C47.1415 0.637822 46.7238 0.32967 46.2919 0.408217C39.4491 1.71537 32.6062 3.02252 25.7589 4.3268C23.809 4.69822 23.1789 8.11753 23.4684 9.6058C24.9152 17.0659 26.3665 24.5288 27.8134 31.9888C19.4737 33.5774 11.1353 35.1731 2.79554 36.7617C0.845593 37.1331 0.215572 40.5524 0.504996 42.0407C1.77709 48.602 3.04919 55.1634 4.32573 61.7276C4.40543 62.1374 4.82312 62.4456 5.25506 62.367C10.148 61.4313 30.1617 55.1027 32.8773 56.8483C35.5617 58.5738 36.8808 78.7148 37.7924 83.4025ZM35.7584 51.7066C35.6787 51.2968 35.261 50.9886 34.829 51.0672C28.4287 52.29 14.4577 57.8367 8.5212 56.0857C7.94754 55.9154 7.66662 55.8906 7.49133 55.9091C7.41481 55.8156 7.37528 55.7523 7.26176 55.6285C6.34477 54.6326 6.33921 50.8646 6.10546 49.6826C5.6119 47.1446 5.11835 44.6067 4.62923 42.0716C12.969 40.483 21.3073 38.8873 29.6471 37.2987C31.597 36.9273 32.2271 33.508 31.9376 32.0197C30.4908 24.5596 29.0395 17.0967 27.5926 9.63666C30.795 9.02666 34.0005 8.41236 37.2029 7.80237C38.0728 7.63665 42.4326 6.29919 43.4052 6.62095C43.5839 6.68011 43.672 6.69315 43.7957 6.72924C43.8623 6.89177 43.9968 7.12338 44.3518 7.52922C46.3671 9.83326 46.5201 18.6992 47.113 21.7476C47.826 25.4144 48.5361 29.0854 49.2491 32.7522C49.3288 33.162 49.7465 33.4702 50.1785 33.3916C56.5788 32.1688 70.5498 26.6221 76.4863 28.3731C77.06 28.5434 77.3409 28.5682 77.5162 28.5497C77.5927 28.6432 77.6322 28.7065 77.7457 28.8303C78.6627 29.8262 78.6683 33.5942 78.902 34.7762C79.3956 37.3142 79.8892 39.8521 80.3783 42.3872C72.0385 43.9758 63.7002 45.5715 55.3604 47.1601C53.4105 47.5315 52.7804 50.9508 53.0699 52.4391C54.5167 59.8992 55.968 67.3621 57.4149 74.8221C54.2125 75.4321 51.007 76.0464 47.8046 76.6564C46.9347 76.8221 42.5749 78.1596 41.6023 77.8378C41.4236 77.7787 41.3355 77.7656 41.2088 77.7339C41.1422 77.5713 41.0077 77.3397 40.6527 76.9339C38.6374 74.6298 38.4843 65.7639 37.8915 62.7155C37.1815 59.0444 36.4684 55.3777 35.7584 51.7066Z" fill="#FF7C2E"/>
</svg>
