<svg width="87" height="83" viewBox="0 0 87 83" fill="none" xmlns="http://www.w3.org/2000/svg">
<path d="M1.46421 47.9376C6.49019 48.7468 27.8883 50.1226 29.2233 51.7715C30.3598 53.1767 24.787 73.117 23.88 77.9268C23.7617 78.5541 23.8688 79.489 24.6946 79.6182C31.5712 80.7216 38.4477 81.825 45.3274 82.9326C46.533 83.1267 48.0359 81.8678 48.8764 80.5394C49.1529 80.1642 49.3798 79.7846 49.4478 79.424C50.8986 71.7298 52.3569 64.0368 53.8077 56.3426C62.1386 57.6801 70.4725 59.0218 78.8033 60.3594C80.7022 60.6651 82.6205 58.4589 82.9237 56.8508C84.1683 50.2713 85.4128 43.6918 86.6542 37.1081C86.7725 36.4807 86.6654 35.5459 85.8396 35.4166C80.8136 34.6074 59.4155 33.2316 58.0805 31.5827C56.944 30.1775 62.5168 10.2373 63.4238 5.42749C63.5421 4.80012 63.4349 3.86527 62.6092 3.73604C55.7326 2.63264 48.8561 1.52924 41.9764 0.421636C40.0776 0.115919 38.1593 2.32212 37.856 3.9302C36.4052 11.6244 34.9469 19.3174 33.4961 27.0117C25.1652 25.6741 16.8313 24.3324 8.50046 22.9949C6.60159 22.6891 4.68326 24.8954 4.38005 26.5034C3.13554 33.0829 1.89103 39.6625 0.649609 46.2462C0.535765 46.8705 0.642879 47.8054 1.46421 47.9376ZM6.98958 36.9986C7.50899 34.244 8.03285 31.4864 8.55225 28.7317C16.8831 30.0693 25.217 31.411 33.5479 32.7486C35.4467 33.0543 37.365 30.8481 37.6683 29.24C39.1191 21.5458 40.5774 13.8527 42.0282 6.1585C45.2006 6.66924 48.3698 7.17577 51.5421 7.68651C52.8834 7.90245 56.5177 8.00091 57.7737 8.68978C57.9211 8.77295 57.9902 8.77666 58.1054 8.82491C58.1223 8.92051 58.1141 8.96377 58.1389 9.07922C59.6857 15.7403 54.6601 27.4879 53.3615 34.3745C53.2432 35.0019 53.3503 35.9367 54.1761 36.066C61.9374 37.3155 73.6995 36.9876 80.6109 40.3145C80.9704 40.4875 81.2366 40.5787 81.4431 40.6156C81.7 42.1356 80.5613 45.0246 80.3111 46.3514C79.7917 49.106 79.2679 51.8637 78.7485 54.6183C70.4176 53.2808 62.0837 51.939 53.7529 50.6015C51.854 50.2958 49.9357 52.502 49.6324 54.11C48.1816 61.8043 46.7233 69.4973 45.2725 77.1915C42.1001 76.6808 38.9309 76.1743 35.7586 75.6635C34.4173 75.4476 30.783 75.3491 29.527 74.6602C29.3796 74.5771 29.3105 74.5734 29.1953 74.5251C29.1784 74.4295 29.1866 74.3863 29.1618 74.2708C27.615 67.6097 32.6407 55.8621 33.9392 48.9755C34.0575 48.3482 33.9504 47.4133 33.1246 47.2841C25.3633 46.0345 13.6012 46.3624 6.68977 43.0355C6.33032 42.8625 6.06412 42.7714 5.85758 42.7344C5.59934 41.2217 6.73803 38.3327 6.98958 36.9986Z" fill="#FF7C2E"/>
</svg>
