<svg width="83" height="76" viewBox="0 0 83 76" fill="none" xmlns="http://www.w3.org/2000/svg">
<path d="M77.0576 61.9163C77.3263 62.2465 77.2922 62.75 76.9454 63.0056C71.4028 67.0132 65.8601 71.0209 60.3168 75.0337C59.145 75.8819 55.7855 74.498 54.7794 73.2378C54.7504 73.2082 54.6938 73.1801 54.6655 73.1453C49.7716 67.1368 44.8785 61.1232 39.9846 55.1147C33.233 60.002 26.4768 64.8836 19.7252 69.771C18.1466 70.9137 15.0497 69.0819 14.0739 67.8827C9.76929 62.5983 5.46468 57.314 1.16075 52.0246C0.892052 51.6943 0.926221 51.1909 1.27298 50.9353C5.23702 48.0703 23.4124 38.0203 23.8366 34.9193C24.256 31.8539 9.34055 17.4775 6.26159 13.6994C5.99289 13.3692 6.02705 12.8658 6.37381 12.6101C11.9165 8.60249 17.4591 4.59483 23.0024 0.582072C24.581 -0.560666 27.6779 1.27115 28.6537 2.4704C33.5476 8.47893 38.4408 14.4925 43.3346 20.5011C50.0862 15.6137 56.8425 10.7321 63.594 5.84472C65.1726 4.70198 68.2695 6.5338 69.2453 7.73305C73.5499 13.0174 77.8545 18.3017 82.1585 23.5912C82.4272 23.9214 82.393 24.4248 82.0462 24.6805C78.0822 27.5454 59.9068 37.5954 59.4826 40.6964C59.0632 43.7618 73.9841 58.139 77.0576 61.9163ZM53.5491 39.3208C53.2804 38.9906 53.3145 38.4872 53.6613 38.2315C58.8457 34.4832 72.4185 28.2207 74.965 22.8192C75.2102 22.2965 75.3762 22.0796 75.5065 21.967C75.4836 21.85 75.4601 21.7796 75.438 21.616C75.2626 20.2977 72.3119 17.7801 71.5395 16.8248C69.8754 14.7797 68.2114 12.7347 66.5466 10.6947C59.7951 15.582 53.0388 20.4636 46.2872 25.351C44.7086 26.4938 41.6117 24.6619 40.6359 23.4627C35.7421 17.4542 30.8489 11.4405 25.955 5.43201C23.3625 7.30873 20.7645 9.18475 18.172 11.0615C17.4677 11.5713 13.5406 13.7881 13.1508 14.6963C13.0792 14.8632 13.0313 14.9347 12.9779 15.047C13.0614 15.2029 13.1542 15.4533 13.238 15.9772C13.714 18.9514 20.5643 24.9752 22.563 27.4316C24.9672 30.3863 27.3768 33.3416 29.7809 36.2963C30.0496 36.6265 30.0155 37.13 29.6687 37.3856C24.4843 41.1339 10.9115 47.3965 8.36501 52.7979C8.11981 53.3206 7.95377 53.5375 7.82356 53.6502C7.84637 53.7671 7.86991 53.8376 7.89201 54.0011C8.06746 55.3194 11.0181 57.8371 11.7905 58.7923C13.4546 60.8374 15.1186 62.8825 16.7834 64.9225C23.5349 60.0351 30.2912 55.1535 37.0428 50.2661C38.6214 49.1234 41.7183 50.9552 42.6941 52.1544C47.5879 58.163 52.4811 64.1766 57.375 70.1851C59.9675 68.3084 62.5655 66.4324 65.158 64.5557C65.8623 64.0458 69.7894 61.8291 70.1792 60.9209C70.2508 60.754 70.2988 60.6824 70.3575 60.5709C70.274 60.4149 70.1812 60.1645 70.0974 59.6406C69.6214 56.6664 62.7711 50.6427 60.7724 48.1862C58.3628 45.2309 55.9586 42.2762 53.5491 39.3208Z" fill="#FF7C2E"/>
</svg>
