<svg width="82" height="77" viewBox="0 0 82 77" fill="none" xmlns="http://www.w3.org/2000/svg">
<path d="M81.0751 25.5996C77.0253 28.5313 58.7755 39.1784 58.3982 41.2284C58.0777 42.9748 72.7163 58.1969 75.8606 62.0612C76.2707 62.5653 76.6313 63.4412 75.9641 63.9196C70.4213 67.9274 64.8786 71.9352 59.3351 75.9481C58.3637 76.6514 56.4217 76.1975 55.0316 75.3902C54.6043 75.1793 54.2189 74.9428 53.9832 74.6531C48.9532 68.4712 43.9172 62.2938 38.8872 56.1119C32.1726 60.968 25.4573 65.8292 18.7427 70.6853C17.2127 71.7929 14.4421 70.6822 13.3908 69.3902C9.08612 64.1057 4.78143 58.8211 0.477421 53.5315C0.0672909 53.0275 -0.293296 52.1515 0.373909 51.6731C4.42371 48.7415 22.6735 38.0944 23.0509 36.0444C23.3713 34.298 8.7328 19.0759 5.58847 15.2115C5.17834 14.7074 4.81775 13.8315 5.48496 13.3531C11.0277 9.3453 16.5705 5.3375 22.1139 1.3246C23.644 0.216983 26.4146 1.32766 27.4658 2.61964C32.4958 8.80151 37.5319 14.979 42.5619 21.1608C49.2765 16.3047 55.9917 11.4435 62.7063 6.58746C64.2364 5.47984 67.007 6.59051 68.0582 7.8825C72.3629 13.167 76.6676 18.4516 80.9716 23.7412C81.3764 24.2446 81.7369 25.1205 81.0751 25.5996ZM70.8623 18.3364C69.0614 16.1232 67.2553 13.9093 65.4545 11.6961C58.7399 16.5522 52.0246 21.4134 45.31 26.2695C43.7799 27.3771 41.0093 26.2664 39.9581 24.9744C34.9281 18.7926 29.892 12.6151 24.862 6.43324C22.3059 8.28366 19.7504 10.129 17.1942 11.9794C16.1135 12.7618 12.948 14.4503 12.1729 15.6143C12.0831 15.7529 12.0238 15.7867 11.9455 15.8802C11.9771 15.9724 12.0054 16.0072 12.0397 16.1204C13.9161 22.7071 24.0809 30.9073 28.5829 36.4403C28.9931 36.9443 29.3537 37.8203 28.6865 38.2987C22.4326 42.8258 11.8731 47.7172 7.38232 53.7116C7.14877 54.0233 6.9578 54.2214 6.79319 54.3452C7.30629 55.8058 9.72007 57.8652 10.5875 58.9313C12.3883 61.1445 14.1945 63.3584 15.9953 65.5715C22.7099 60.7154 29.4251 55.8543 36.1397 50.9982C37.6698 49.8905 40.4404 51.0012 41.4916 52.2932C46.5216 58.4751 51.5577 64.6525 56.5877 70.8344C59.1438 68.984 61.6993 67.1387 64.2555 65.2882C65.3363 64.5059 68.5018 62.8174 69.2768 61.6533C69.3666 61.5147 69.4259 61.4809 69.5042 61.3874C69.4726 61.2952 69.4443 61.2605 69.4101 61.1472C67.5336 54.5605 57.3688 46.3603 52.8668 40.8273C52.4566 40.3233 52.0961 39.4473 52.7633 38.969C59.0171 34.4418 69.5766 29.5504 74.0674 23.5561C74.3009 23.2443 74.4919 23.0462 74.6565 22.9225C74.1482 21.4676 71.7344 19.4082 70.8623 18.3364Z" fill="#0070DA"/>
</svg>
